<?xml version="1.0" standalone="no"?>
<!DOCTYPE svg PUBLIC "-//W3C//DTD SVG 1.1//EN" "http://www.w3.org/Graphics/SVG/1.1/DTD/svg11.dtd" >
<!--
2013-9-30: Created.
-->
<svg>
<metadata>
Created by iconfont
</metadata>
<defs>

<font id="iconfont" horiz-adv-x="1024" >
  <font-face
    font-family="iconfont"
    font-weight="500"
    font-stretch="normal"
    units-per-em="1024"
    ascent="896"
    descent="-128"
  />
    <missing-glyph />
    
    <glyph glyph-name="huiyuan" unicode="&#58883;" d="M355.82978516 292.91894531c6.82998047 7.62011719 14.05371094 14.82011719 21.49453125 21.79335938-18.93076172 1.62949219-36.86572266 6.78164062-52.89785157 15.22792969-44.51044922 23.44833984-74.97861328 70.12705078-74.97861328 123.83876953 0 77.146875 62.76972656 139.91660156 139.91660157 139.91660156 4.81640625 0 9.56074219-0.28740234 14.25761718-0.77871094 3.79775391 7.90751953 8.015625 15.56367188 12.70019531 22.9078125-8.77060547 1.50996094-17.75566406 2.40820313-26.9578125 2.40820313-90.80595703 0-164.45478516-73.62509766-164.45478515-164.45478516 0-55.209375 27.30498047-103.94912109 69.03632812-133.77128906C202.30332031 282.975 133.90244141 194.24150391 119.12890625 86.48144531000003l24.82470703 0c15.61201172 104.48876953 86.04931641 189.1125 177.92226563 217.43613281C332.62226562 299.06513672000005 344.00498047 295.39833983999995 355.82978516 292.91894531zM709.30039063 347.82949219c46.66728516 33.39140625 77.19521484 87.90644531 77.19521484 149.65751953 0 101.63671875-82.39482422 184.03154297-184.03242188 184.03154297-101.63671875 0-184.03154297-82.39482422-184.03154297-184.03154297 0-61.75107422 30.52792969-116.26611328 77.19521485-149.65751953C393.09189453 306.38554688 316.57958984 207.04892578 300.05703125 86.48144531000003l24.81328125 0c17.34873047 117.15292969 95.78935547 212.16445312 198.37353516 245.10058594 24.02226563-11.50224609 50.81220703-18.12744141 79.21933593-18.12744141 28.40800781 0 55.19794922 6.62519531 79.22021485 18.12744141 102.58417969-32.93701172 181.02480469-127.94765625 198.37353515-245.10058594L904.87109375 86.48144531000003C888.34853516 207.04892578 811.83623047 306.38554688 709.30039063 347.82949219zM679.55205078 357.96503906c-13.39541016-7.44082031-27.96416016-12.97617188-43.34853516-16.30634765-10.89140625-2.3484375-22.15283203-3.66679687-33.73945312-3.66679688-11.58574219 0-22.84804688 1.31835938-33.73945313 3.66679688-15.38349609 3.33017578-29.95224609 8.86552734-43.34765625 16.30634765-49.08691406 27.22148437-82.40712891 79.53134766-82.4071289 139.52197266 0 87.95390625 71.55175781 159.49423828 159.49423828 159.49423828 87.94335938 0 159.49511719-71.54033203 159.49511719-159.49423828C761.95830078 437.49638672 728.63808594 385.18652344 679.55205078 357.96503906z"  horiz-adv-x="1024" />

    
    <glyph glyph-name="57" unicode="&#58948;" d="M65 300c0-246.854 200.146-447 447-447 246.854 0 447 200.146 447 447 0 246.854-200.146 447-447 447C265.146 747 65 546.854 65 300zM94.8 300C94.8 530.048 281.952 717.2 512 717.2S929.199 530.048 929.199 300 742.048-117.2 512-117.2 94.8 69.952 94.8 300zM402.694 536.45 638.082 300 402.694 63.55 385.918 80.399 604.528 300 385.918 519.571Z"  horiz-adv-x="1024" />

    
    <glyph glyph-name="tianjia" unicode="&#58881;" d="M436.775226 156.55075499999998c-31.755238 0-57.46376-25.706475-57.46376-57.399291 0-31.756261 25.708522-57.403385 57.46376-57.403385 31.69384 0 57.400315 25.647123 57.400315 57.403385C494.175541 130.84428000000003 468.468043 156.55075499999998 436.775226 156.55075499999998zM800.55444 337.68413799999996c-115.137297 0-208.475102 93.336782-208.475102 208.474079 0 18.576077 2.442632 36.579103 7.000438 53.719482L346.326215 621.935064c-16.004509 1.385557-24.888853-9.892301-19.784602-25.140587l86.479607-258.840186c5.134951-15.185864 22.494317-29.677926 38.498826-29.677926l361.228111 0c16.036231 0 30.591739 15.122419 32.293497 31.064506l0.340761 3.189645C830.940494 339.367477 815.944965 337.68413799999996 800.55444 337.68413799999996zM711.146131 156.55075499999998c-31.69384 0-57.401338-25.706475-57.401338-57.399291 0-31.756261 25.707498-57.403385 57.401338-57.403385s57.432037 25.647123 57.432037 57.403385C768.578168 130.84428000000003 742.839971 156.55075499999998 711.146131 156.55075499999998zM778.565636 262.153908L378.870422 262.153908 241.258251 669.066501c-3.969405 11.908214-15.121396 17.893532-27.66099 17.893532L91.990622 686.9600330000001c-16.066931 0-29.141714-11.341303-29.141714-27.471678 0-16.130376 13.07376-27.471678 29.141714-27.471678l100.656491 0 137.579425-406.912593c4.033873-11.843746 15.122419-17.830087 27.66099-17.830087L778.565636 207.273996c16.131399 0 29.173436 11.340279 29.173436 27.40721C807.739073 250.813628 794.697035 262.153908 778.565636 262.153908zM800.55444 700.246641c-85.10019 0-154.087401-68.987211-154.087401-154.088424 0-85.10019 68.987211-154.087401 154.087401-154.087401s154.087401 68.988234 154.087401 154.087401C954.641841 631.2594300000001 885.65463 700.246641 800.55444 700.246641zM719.816604 525.2275119999999l0 41.718147 57.115835 0 0 57.118905 41.71917 0 0-57.118905 57.038064 0 0-41.718147-57.038064 0 0-57.037041-41.71917 0 0 57.037041L719.816604 525.2275119999999z"  horiz-adv-x="1024" />

    
    <glyph glyph-name="kefu" unicode="&#59049;" d="M914.285714 384c0 222.213486-180.035657 402.285714-402.285714 402.285714S109.714286 606.213486 109.714286 384s180.035657-402.285714 402.285714-402.285714S914.285714 161.786514 914.285714 384zM164.571429 384c0 37.035886 5.9648 72.6784 16.714971 106.177829 169.713371 3.856457 320.786286 71.786057 423.356343 177.250743 60.178286-61.677714 136.535771-110.785829 224.071314-141.357714C848.285257 482.642286 859.428571 434.642286 859.428571 384c0-191.572114-155.856457-347.428571-347.428571-347.428571S164.571429 192.42788599999994 164.571429 384zM381.714286 489.713371c-38.999771 0-70.535314-31.572114-70.535314-70.464 0-38.999771 31.535543-70.571886 70.535314-70.571886 29.856914 0 55.107657 18.7136 65.285486 44.893257l-51.214629 25.678629 51.214629 25.536C436.821943 471.107657 411.5712 489.713371 381.714286 489.713371zM647.572114 348.46354299999996c29.7856 0 55.107657 18.678857 65.285486 44.964571l-51.285943 25.570743 51.285943 25.607314c-10.177829 26.249143-35.499886 44.893257-65.285486 44.893257-38.999771 0-70.535314-31.572114-70.535314-70.500571C577.034971 380.035657 608.570514 348.46354299999996 647.572114 348.46354299999996zM993.464686 453.856914C968.643657 701.856914 762.177829 896 512 896S55.356343 701.856914 30.535314 453.893486C12.785371 447.285029 0 430.571886 0 410.607543l0-89.749943C0 295.14239999999995 20.964571 274.285714 46.714514 274.285714c25.786514 0 46.749257 20.856686 46.749257 46.571886l0 89.749943c0 17.963886-10.570971 33.071543-25.536 40.821029C91.428571 680.356571 281.607314 859.428571 512 859.428571s420.571429-179.072 444.072229-407.963429c-14.965029-7.749486-25.536-22.893714-25.536-40.8576l0-89.749943c0-19.642514 12.286171-36.2496 29.500343-43.106743-42.784914-182.606629-193.000229-323.893029-380.2496-353.678629C571.035429-63.50080000000003 552.213943-54.85714299999995 530.285714-54.85714299999995c-30.2848 0-54.857143-16.393143-54.857143-36.571429 0-20.214857 24.572343-36.571429 54.857143-36.571429 29.143771 0 52.785371 15.213714 54.535314 34.357029 193.857829 31.749486 349.178514 178.570971 393.214171 368.071314C1003.428571 274.89279999999997 1024 295.42765699999995 1024 320.85760000000005l0 89.749943C1024 430.571886 1011.214629 447.285029 993.464686 453.856914z"  horiz-adv-x="1024" />

    
    <glyph glyph-name="phone" unicode="&#58915;" d="M690.922-9.416l-356.572 0c-33.871 0-61.433 27.549-61.433 61.432l0 644.248c0 33.858 27.563 61.433 61.433 61.433l356.572 0c33.873 0 61.434-27.575 61.434-61.433l0-644.248c0-33.883-27.562-61.432-61.434-61.432zM322.721 721.373c-7.443 0-13.491-6.036-13.491-13.479l0-667.506c0-7.44 6.049-13.478 13.491-13.478l379.831 0c7.443 0 13.491 6.036 13.491 13.478l0 667.506c0 7.443-6.048 13.479-13.491 13.479l-379.831 0zM656.459 182.374l-287.661 0 0 479.44 287.66 0 0-479.44zM405.111 218.675l215.036 0 0 406.815-215.036 0 0-406.815zM479.221 95.56c0 18.605 15.094 33.711 33.711 33.711 18.616 0 33.709-15.107 33.709-33.711 0-18.629-15.093-33.711-33.709-33.711-18.617 0-33.711 15.081-33.711 33.711z"  horiz-adv-x="1024" />

    
    <glyph glyph-name="tushu" unicode="&#58900;" d="M629.361778-89.404444M766.976-206.88l-345.884444 0.568889-92.728889-0.568889c-61.610667 0-111.160889 2.389333-141.596444 32.312889-30.663111 30.151111-36.807111 83.057778-36.807111 158.606222L149.959111 615.904c0 167.196444 38.058667 190.976 178.631111 190.976l345.656889-0.568889 92.501333 0.568889c140.572444 0 178.631111-23.779556 178.631111-190.976l0-631.864889C945.379556-183.100444 907.377778-206.88 766.976-206.88zM421.148444-163.644444l345.884444-0.568889c116.394667 0 135.736889 4.096 135.736889 148.252444L902.769778 615.904c0 144.270222-19.342222 148.309333-135.964444 148.309333l-345.656889-0.568889-92.501333 0.568889c-116.565333 0-135.964444-4.096-135.964444-148.309333l0-631.864889c0-74.24 6.997333-111.388444 24.064-128.227556 17.237333-16.952889 51.143111-20.081778 111.672889-20.081778L421.148444-163.644444zM99.953778 557.763556l142.791111 0 0-42.666667-142.791111 0 0 42.666667ZM99.953778 419.068444l142.791111 0 0-42.666667-142.791111 0 0 42.666667ZM99.953778 280.430222l142.791111 0 0-42.666667-142.791111 0 0 42.666667ZM99.953778 141.735111l142.791111 0 0-42.666667-142.791111 0 0 42.666667ZM709.859556 785.034667l42.666667 0 0-970.012444-42.666667 0 0 970.012444Z"  horiz-adv-x="1024" />

    
    <glyph glyph-name="jinkoushuiyinliao" unicode="&#58929;" d="M642.969379 623.556117 642.969379 692.546398c0 15.703657-12.727882 28.431539-28.431539 28.431539-15.70161 0-28.429493-12.727882-28.429493-28.431539l0-82.027202c0-8.506744 3.818979-16.570397 10.394744-21.967314 1.532913-1.264806 153.637146-127.60526 153.637146-247.52549l0.022513-338.771657c-0.644683-15.770172-11.038404-154.236803-176.649256-154.236803l-52.731992 0-17.569144 0-52.706409 0c-165.633365 0-176.028109 138.466632-176.649256 153.215544l0 339.791893c0 119.587656 152.127769 246.283196 153.661705 247.52549 6.550183 5.420453 10.372232 13.46057 10.372232 21.967314l0 82.027202c0 15.703657-12.728906 28.431539-28.430516 28.431539-15.705704 0-28.430516-12.727882-28.430516-28.431539l0-68.990281C343.158059 589.884226 216.995661 468.253028 216.995661 341.025369l0.021489-340.726172c2.333138-72.320119 54.128805-209.144344 233.489822-209.144344l52.705386 0 17.569144 0 52.731992 0c179.335435 0 231.133148 136.824225 233.487775 210.077599L807.001269 341.025369C807.002292 468.253028 680.839895 589.884226 642.969379 623.556117zM386.026402 751.983091l257.787204 0c15.703657 0 28.431539 12.749372 28.431539 28.431539 0 15.724123-12.727882 28.430516-28.431539 28.430516L386.026402 808.845147c-15.705704 0-28.431539-12.70537-28.431539-28.430516C357.594863 764.732463 370.321722 751.983091 386.026402 751.983091zM417.432693 215.396113c-8.196683 13.305027-25.653263 17.457604-38.981826 9.283434-13.415544-8.172123-17.635659-25.675776-9.44-39.069831 1.37737-2.243087 34.339086-55.218626 90.978061-61.948911 4.064572-0.488117 8.106632-0.731664 12.149714-0.731664 32.341592 0 64.169485 15.437597 94.755084 46.044686 1.444908 1.422396 2.841721 3.197832 3.931542 4.907777 0.198521 0.288572 19.546172 29.918403 49.931203 33.207309 23.233144 2.397606 48.776913-10.372232 76.517721-38.115086 11.106965-11.106965 29.098735-11.106965 40.202631 0 11.106965 11.105942 11.106965 29.096688 0 40.201607-40.802288 40.803311-82.380242 59.08263-123.606179 54.351885-50.02023-5.753027-80.783885-44.491307-89.022523-56.17337-20.635993-20.079314-40.092114-29.319769-57.861826-27.276227C437.933609 183.366629 417.765267 214.885484 417.432693 215.396113z"  horiz-adv-x="1024" />

    
    <glyph glyph-name="weixin" unicode="&#59032;" d="M503.171142 495.891207c17.65034 0 29.444278 11.816065 29.444278 29.422151 0 17.797856-11.771811 29.318889-29.444278 29.318889-17.672467 0-35.403941-11.521033-35.403941-29.318889C467.774576 507.699896 485.513426 495.891207 503.171142 495.891207L503.171142 495.891207zM338.476432 554.62487c-17.65034 0-35.499827-11.521033-35.499827-29.318889 0-17.606085 17.842111-29.422151 35.499827-29.422151 17.583958 0 29.355768 11.816065 29.355768 29.422151C367.817448 543.111214 356.06039 554.62487 338.476432 554.62487L338.476432 554.62487zM855.152703 307.542238c0 93.068111-86.348738 172.37294-192.339288 180.626484 0.147516 1.158004 0.206523 2.360263-0.044255 3.562522-21.249741 99.07203-127.800853 173.759594-247.864469 173.759594-135.670854 0-246.057393-94.58753-246.057393-210.859975 0-62.384695 31.848796-118.588452 92.197764-162.909761l-21.043218-63.24029c-1.349775-4.123084-0.125389-8.644462 3.156851-11.491529 1.998848-1.718566 4.499251-2.618417 7.036533-2.618417 1.630056 0 3.28224 0.390919 4.80166 1.135876l78.987669 39.527025 9.736084-1.984096c24.318082-4.993431 45.317045-9.323038 71.176674-9.323038 7.611847 0 15.341708 0.346664 22.9093 0.98836 3.068342 0.250778 5.664631 1.7997 7.4127 4.027198 28.478045-71.257808 106.97891-122.70416 199.353694-122.70416 23.661634 0 47.610925 5.70151 69.104068 11.085859l60.880028-33.287081c1.607929-0.877723 3.385502-1.327648 5.148323-1.327648 2.397142 0 4.794284 0.818716 6.726749 2.389766 3.392878 2.743805 4.786908 7.265184 3.525643 11.403019l-15.540855 51.69713C826.556644 209.20041500000002 855.152703 258.47827600000005 855.152703 307.542238L855.152703 307.542238zM435.992163 266.09012299999995c-6.962775-0.597442-14.043563-0.907226-21.057969-0.907226-23.66901 0-43.709116 4.100957-66.869194 8.880489l-13.468249 2.729054c-2.316008 0.49418-4.76478 0.162268-6.881641-0.929353l-59.176213-29.613922 15.378587 46.194768c1.504668 4.521378-0.154892 9.455803-4.027198 12.177481C220.43379 346.05877599999997 190.303561 396.538896 190.303561 454.630863c0 104.434251 100.753717 189.418463 224.608505 189.418463 109.486689 0 206.427106-66.603665 226.437709-155.194653-114.804656-1.504668-207.695747-82.203527-207.695747-181.312435 0-14.412355 2.190619-28.367408 5.878529-41.835657C438.418808 265.986862 437.238677 266.20076100000006 435.992163 266.09012299999995L435.992163 266.09012299999995zM755.586493 180.59698100000003c-3.569897-2.699551-5.089317-7.353694-3.8133-11.646422l10.141754-33.737006-41.629134 22.76916c-1.585802 0.885099-3.37075 1.327648-5.148323 1.327648-0.877723 0-1.755445-0.103261-2.611041-0.339288-22.326611-5.642503-45.420307-11.447274-67.916561-11.447274-104.493258 0-189.484845 71.796243-189.484845 160.033191 0 88.244324 84.998963 160.01844 189.484845 160.01844 102.487035 0 189.101302-73.278783 189.101302-160.01844C833.711191 263.56021699999997 805.978103 218.46444599999995 755.586493 180.59698100000003L755.586493 180.59698100000003zM579.695286 384.036879c-11.779186 0-23.550997-11.86032-23.550997-23.617379 0-11.830817 11.771811-23.528869 23.550997-23.528869 17.679843 0 29.377896 11.690677 29.377896 23.528869C609.073182 372.19868599999995 597.37513 384.036879 579.695286 384.036879L579.695286 384.036879zM709.059813 384.036879c-11.602167 0-23.381353-11.86032-23.381353-23.617379 0-11.830817 11.779186-23.528869 23.381353-23.528869 17.620837 0 29.525412 11.690677 29.525412 23.528869C738.585225 372.19868599999995 726.710153 384.036879 709.059813 384.036879L709.059813 384.036879zM709.059813 384.036879M512.014752 896C229.233145 896 0 666.766855 0 383.992624c0-282.759479 229.233145-511.985248 512.014752-511.985248 282.766855 0 511.992624 229.225769 511.992624 511.985248C1024.007376 666.766855 794.781607 896 512.014752 896zM512.014752-103.03284499999995c-268.981445 0-487.032845 218.0514-487.032845 487.018094 0 268.974069 218.0514 487.032845 487.032845 487.032845s487.02547-218.0514 487.02547-487.032845C999.040221 115.01855499999999 780.996197-103.03284499999995 512.014752-103.03284499999995z"  horiz-adv-x="1025" />

    
    <glyph glyph-name="dingbu" unicode="&#59244;" d="M796.422846 371.521677 537.312727 630.814138c-6.368176 6.39914-14.688778 9.471415-22.976697 9.407768-1.119849 0.096331-2.07972 0.639914-3.19957 0.639914-4.67206 0-9.024163-1.087166-13.023626-2.879613-4.032146-1.536138-7.87163-3.872168-11.136568-7.135385L227.647682 371.72294c-12.512727-12.480043-12.54369-32.735385-0.032684-45.248112 6.239161-6.271845 14.432469-9.407768 22.65674-9.407768 8.191587 0 16.352211 3.135923 22.624056 9.34412L479.1356 532.573579l0-563.712619c0-17.695686 14.336138-31.99914 32.00086-31.99914s32.00086 14.303454 32.00086 31.99914L543.13732 534.1424l207.91012-207.73982c6.240882-6.271845 14.496116-9.440452 22.687703-9.440452s16.319527 3.103239 22.560409 9.311437C808.870206 338.722645 808.902889 359.010671 796.422846 371.521677zM864.00258 704 160.00258 704c-17.664722 0-32.00086 14.336138-32.00086 32.00086S142.337858 768 160.00258 768l704 0c17.695686 0 31.99914-14.336138 31.99914-32.00086S881.698266 704 864.00258 704z"  horiz-adv-x="1024" />

    
    <glyph glyph-name="weibiaoti35" unicode="&#58933;" d="M838.4 540.8 512 214.4c-6.4-6.4-14.4-9.6-22.4-9.6-8 0-16.8 3.2-22.4 9.6L140 540.8c-12 12-14.4 32.8-2.4 45.6 12 13.6 33.6 13.6 46.4 0.8l305.6-305.6c0 0 0 0 0.8 0l305.6 305.6c12.8 12.8 33.6 12.8 46.4-0.8C852.8 573.6 851.2 553.6 838.4 540.8z"  horiz-adv-x="1024" />

    
    <glyph glyph-name="chongzhi" unicode="&#58951;" d="M390.656 690.3679999999999l158.208 0 0-19.744-158.208 0 0 19.744zM737.344 183.61599999999999c5.6-0.384 9.632 0.704 12.064 3.328s3.616 5.728 3.616 9.312c0 3.232-1.312 6.144-3.904 8.736s-6.72 3.904-12.352 3.904l-39.168 0 0 11.456c6.816 6.432 13.024 12.64 18.688 18.656 4.832 4.832 9.632 9.728 14.464 14.752s8.448 8.544 10.848 10.528c9.216 8.032 11.264 15.072 6.048 21.088-2.816 3.616-6.432 5.408-10.848 5.408s-8.448-1.6-12.064-4.832c-2.016-1.6-5.408-4.512-10.24-8.736s-9.632-8.544-14.464-12.928c-5.6-5.216-11.84-11.04-18.688-17.472l-28.928 28.896c-4 4-6.816 7.04-8.448 9.024-3.232 2.816-7.424 5.12-12.64 6.912s-9.632 0.704-13.248-3.328c-3.232-4.416-4-8.736-2.432-12.928s3.424-7.52 5.408-9.952l9.024-8.448c4.416-4.832 9.248-10.048 14.464-15.648 6.048-6.432 12.64-13.248 19.872-20.448l-0.608-12.64-40.96 0c-3.616 0-6.72-1.408-9.344-4.192s-3.904-5.824-3.904-9.024c0-3.232 1.216-6.016 3.616-8.448s5.6-3.616 9.632-3.616l40.96 0 0-21.088-40.96 0c-3.616 0-6.72-1.12-9.344-3.328s-3.904-5.12-3.904-8.736c-0.384-3.232 0.704-5.92 3.328-8.128s5.92-3.328 9.952-3.328l40.96 0 0-12.064c0.384-5.6 2.208-9.536 5.408-11.744s7.232-3.328 12.064-3.328c4.832-0.384 8.736 1.12 11.744 4.512s4.544 6.912 4.544 10.528l0 12.064 42.144 0c4 0 7.328 0.896 9.952 2.688s3.712 4.736 3.328 8.736c0 8.448-5.6 12.64-16.864 12.64l-38.56 0 0.608 20.448 39.168 0.64zM1023.52 446.208c-0.832 19.04-1.664 38.112-2.496 57.12-3.84 24.192-2.432 48.864-6.72 72.128-2.016 12.864-4 25.792-5.984 38.656-7.04 32.224-13.856 62.752-24.96 90.528-20.576 51.52-52.32 94.88-96.544 122.752-94.752 59.68-235.68 68.992-390.72 68.576-15.456-0.256-30.944-0.48-46.4-0.736-9.472-0.352-18.944-0.672-28.448-1.024-6.72-0.32-13.472-0.64-20.224-0.992-18.208-1.408-36.448-2.816-54.624-4.256-9.888-1.184-19.808-2.304-29.696-3.488-22.176-4.128-44.128-6.464-64.864-11.712-95.648-24.32-151.648-60.192-195.872-136.16-21.984-37.728-31.232-84.16-41.92-133.472-2.24-16.64-4.48-33.248-6.72-49.888-1.568-19.776-3.168-39.584-4.736-59.36-0.256-6.72-0.48-13.472-0.768-20.224-0.576-18.208-1.152-36.448-1.728-54.624l0-55.616c0.32-17.12 0.672-34.272 1.024-51.36 0.384-11.904 0.832-23.808 1.248-35.68 0.48-8.064 1.024-16.128 1.504-24.192 3.456-21.664 2.624-43.744 6.464-64.64 5.92-31.936 9.824-62.816 18.72-91.296 24.096-77.344 60.384-129.088 124.256-166.624 28.512-16.768 62.624-27.52 98.56-36.672 13.312-2.656 26.592-5.312 39.904-8 16.64-2.24 33.28-4.48 49.888-6.72 21.28-1.664 42.592-3.328 63.872-4.992 7.232-0.256 14.496-0.48 21.696-0.736 15.328-0.416 30.624-0.832 45.92-1.248 7.648-0.096 15.296-0.192 22.944-0.256l31.904 0c20.8 0.32 41.6 0.64 62.4 1.024 5.984 0.256 12 0.48 17.952 0.736 17.792 1.152 35.616 2.336 53.408 3.52 15.232 1.664 30.432 3.328 45.664 4.992 34.208 6.336 66.848 10.912 97.056 20.448 65.536 20.672 114.208 53.728 149.696 104.288 27.328 38.88 41.376 88.288 53.408 142.688 2.592 16.864 5.184 33.76 7.712 50.624 1.856 20.096 3.648 40.256 5.504 60.384 0.32 7.232 0.672 14.464 1.024 21.696 0.64 16.448 1.312 32.928 2.016 49.408l0 13.248c0.096 7.648 0.16 15.296 0.256 22.976l0 54.88c-0.192 7.808-0.352 15.616-0.512 23.424zM331.328 87.51999999999998c-32.64 0-59.328 26.688-59.328 59.296l0 513.888c0 32.608 26.72 59.296 59.328 59.296l276.864 0c32.64 0 59.328-26.688 59.328-59.296l0-273.824c-13.632-0.864-26.88-3.2-39.552-6.848l0 260.896-316.448 0 0-395.296 188.576 0c-3.168-13.472-4.864-27.52-4.864-41.92-0.032-44.064 15.552-84.544 41.568-116.192l-205.472 0zM679.424 48.928c-85.664-0.032-155.232 69.376-155.168 154.784 0.064 85.376 69.472 154.656 154.976 154.624 85.664 0 155.168-69.472 155.04-154.88-0.128-85.184-69.6-154.496-154.816-154.528z"  horiz-adv-x="1025" />

    
    <glyph glyph-name="fangdajing" unicode="&#58903;" d="M938.64603 9.72678099999996l-173.071777 173.074847c53.665247 63.987337 86.075401 146.400325 86.075401 236.446154 0 203.406666-164.895561 368.298134-368.301204 368.298134-203.409736 0-368.302227-164.892491-368.302227-368.298134 0-203.409736 164.892491-368.302227 368.302227-368.302227 89.246627 0 171.055864 31.767518 234.798631 84.579327l173.148525-173.148525c1.576915-1.576915 8.15575 2.443655 14.6957 8.979512l23.675212 23.675212C936.205445 1.571030999999948 940.222945 8.149865999999975 938.64603 9.72678099999996zM483.347426 117.90661899999998c-166.425404 0-301.338093 134.912689-301.338093 301.338093s134.912689 301.338093 301.338093 301.338093S784.685519 585.670116 784.685519 419.244712 649.773853 117.90661899999998 483.347426 117.90661899999998z"  horiz-adv-x="1024" />

    
    <glyph glyph-name="wangwang" unicode="&#59295;" d="M558.976 715.968C474.368 781.6320000000001 318.72 832 318.72 832s38.912-64.576 46.272-137.216C189.824 637.312 64 480.256 64 295.10400000000004 64 61.50400000000002 264.64-128 512.064-128S960 61.50400000000002 960 295.10400000000004C960 513.9200000000001 784.32 693.76 558.976 715.968zM585.728 267.58399999999995c-30.464 0-50.816-1.408-78.08-1.792 12.224 62.4 1.152 145.92-27.008 170.432 32.128 11.52 41.984 19.328 77.056 29.184C593.472 434.624 593.472 311.10400000000004 585.728 267.58399999999995zM825.92 296.64c-30.656 0-45.696 1.152-74.048-1.856 10.496 68.672 4.16 144.896-37.184 170.496 31.552 13.568 39.744 20.672 75.072 29.184C830.336 456.256 848.128 335.93600000000004 825.92 296.64z"  horiz-adv-x="1024" />

    
    <glyph glyph-name="ertong" unicode="&#58945;" d="M659.89951 252.793398c-39.474875-38.741765-93.641247-62.732456-153.314026-62.732456-59.67076 0-113.836121 23.990691-153.312007 62.732456-15.056032-14.689476-27.908693-31.457109-38.191427-49.939373 50.309967-46.640375 117.387568-75.404363 191.503434-75.404363 74.055278 0 141.195486 28.763988 191.501414 75.404363C687.805173 221.335279 674.953522 238.103922 659.89951 252.793398zM412.579701 409.472059c0 34.642-28.094495 62.732456-62.733466 62.732456-34.519815 0-62.672878-28.090455-62.672878-62.732456 0-34.638971 28.154073-62.670858 62.672878-62.670858C384.485206 346.801201 412.579701 374.833088 412.579701 409.472059zM663.324732 472.204515c-34.642 0-62.732456-28.090455-62.732456-62.732456 0-34.638971 28.090455-62.670858 62.732456-62.670858 34.518805 0 62.546654 28.030878 62.546654 62.670858C725.872395 444.11305 697.843537 472.204515 663.324732 472.204515zM506.585483 879.507031C229.644371 879.507031 5.213568 655.01766 5.213568 378.136125c0-276.880525 224.430803-501.369896 501.370906-501.369896 276.942122 0 501.372926 224.490381 501.372926 501.369896C1007.957399 655.01766 783.527606 879.507031 506.585483 879.507031zM882.613663 252.793398c-7.037256 0-13.892749 1.22589-20.259501 3.366654C811.680668 108.293866 671.52628 2.046348 506.585483 2.046348c-164.938777 0-305.094175 106.247518-355.770698 254.112695-6.362713-2.140764-13.219216-3.366654-20.257482-3.366654-34.642 0-62.672878 28.093485-62.672878 62.670858 0 34.64301 28.030878 62.672878 62.672878 62.672878 0 207.721739 168.368038 376.090787 376.02818 376.090787l0-31.335934c0-51.899383-42.046821-94.008812-94.005783-94.008812-11.078452 0-21.482362 2.266988-31.397532 5.752798l0-65.240785c10.15954-2.081186 20.685634-3.181862 31.397532-3.181862 75.829487 0 138.989086 53.858384 153.555367 125.342727l3.122284 57.466379C747.050809 719.157769 882.613663 564.497687 882.613663 378.136125c34.639981 0 62.670858-28.029868 62.670858-62.672878C945.284521 280.886883 917.253644 252.793398 882.613663 252.793398z"  horiz-adv-x="1024" />

    
    <glyph glyph-name="mima" unicode="&#58937;" d="M781.994667 442.368 781.994667 602.453333c0 146.773333-119.125333 265.898667-265.898667 265.898667-1.706667 0-3.072 0-5.12 0-1.365333 0-3.413333 0-4.778667 0-146.773333 0-265.898667-119.125333-265.898667-265.898667l0-160.085333L146.090667 442.368 146.090667-107.52l732.16 0L878.250667 442.368 781.994667 442.368 781.994667 442.368zM595.626667-6.826667l-165.888 0 40.618667 177.834667c-24.234667 14.336-40.618667 40.96-40.618667 71.338667 0 45.738667 37.205333 82.944 82.944 82.944 45.738667 0 82.944-37.205333 82.944-82.944 0-30.378667-16.384-57.002667-40.96-71.68L595.626667-6.826667 595.626667-6.826667zM648.874667 442.368l-275.456 0L373.418667 602.453333c0 73.386667 59.733333 132.778667 132.778667 132.778667 2.048 0 6.485333 0 6.485333 0s2.389333 0 3.413333 0c73.386667 0 132.778667-59.733333 132.778667-132.778667L648.874667 442.368 648.874667 442.368zM648.874667 442.368"  horiz-adv-x="1024" />

    
    <glyph glyph-name="pinglun2" unicode="&#59012;" d="M337.36192-18.688c-3.5584 0-7.13728 0.75776-10.496 2.304-8.89856 4.096-14.61248 12.99968-14.61248 22.8096L312.25344 113.4592c0 13.29152-10.81344 24.09984-24.12544 24.09984l-122.88 0c-41.00096 0-74.35264 33.3568-74.35264 74.33216L90.89536 660.3008c0 40.9856 33.35168 74.33728 74.35264 74.33728l708.80768 0c40.97536 0 74.32704-33.35168 74.32704-74.33728l0-448.41472c0-40.97536-33.35168-74.33216-74.32704-74.33216l-336.19968 0c-5.76 0-11.35104-2.048-15.73888-5.8368l-168.41728-144.3584C349.06112-16.62464 343.24992-18.688 337.36192-18.688z"  horiz-adv-x="1024" />

    
    <glyph glyph-name="zichan" unicode="&#58984;" d="M511.999488 829.138196c-245.825778 0-445.138196-199.258183-445.138196-445.138196 0-245.934249 199.312418-445.138196 445.138196-445.138196 245.826801 0 445.138196 199.203948 445.138196 445.138196C957.137685 629.880013 757.825266 829.138196 511.999488 829.138196zM511.999488-5.4959219999999505c-215.016075 0-389.495922 174.371376-389.495922 389.495922 0 215.071334 174.479847 389.495922 389.495922 389.495922 215.125569 0 389.495922-174.424588 389.495922-389.495922C901.49541 168.875454 727.124034-5.4959219999999505 511.999488-5.4959219999999505zM706.746938 384c15.377222 0 27.821649 12.443403 27.821649 27.821649 0 15.32401-12.443403 27.821649-27.821649 27.821649L551.340495 439.643298l142.473899 142.474922c10.867512 10.867512 10.867512 28.472472 0 39.339983s-28.472472 10.867512-39.339983 0l-142.474922-142.473899L369.524566 621.458203c-10.813277 10.867512-28.473495 10.867512-39.341007 0-10.812253-10.867512-10.812253-28.472472 0-39.339983l142.474922-142.474922L317.251016 439.643298c-15.32401 0-27.821649-12.497639-27.821649-27.821649 0-15.377222 12.497639-27.821649 27.821649-27.821649l166.926824 0 0-55.642275L317.251016 328.35772499999996c-15.32401 0-27.821649-12.497639-27.821649-27.821649 0-15.377222 12.497639-27.821649 27.821649-27.821649l166.926824 0 0-139.106198c0-15.377222 12.498662-27.821649 27.821649-27.821649 15.377222 0 27.821649 12.443403 27.821649 27.821649L539.821137 272.71545100000003l166.926824 0c15.377222 0 27.821649 12.443403 27.821649 27.821649 0 15.32401-12.443403 27.821649-27.821649 27.821649L539.820114 328.358749l0 55.642275L706.746938 384.001023z"  horiz-adv-x="1024" />

    
    <glyph glyph-name="zhuizong2" unicode="&#59060;" d="M510.603994 769.128027c-0.021985 0-0.021985 0.017388-0.021985 0.017388s0-0.017388-0.01499-0.017388c-211.818787 0-383.540959-171.739161-383.540959-383.543957 0-211.833777 171.722172-383.560946 383.555949-383.560946 211.839773 0 383.561945 171.727169 383.561945 383.560946C894.148951 597.388866 722.421782 769.128027 510.603994 769.128027M528.023184 37.777683l0 121.158455c0 9.634468-7.796714 17.430182-17.435179 17.430182-9.635467 0-17.435179-7.795715-17.435179-17.430182l0-121.158455c-178.602907 8.851998-321.549789 151.785689-330.406185 330.372208l121.188634 0c9.638865 0 17.438577 7.812703 17.438577 17.43418 0 9.634868-7.799712 17.434579-17.438577 17.434579L162.742644 403.018649c8.855996 178.586518 151.807275 321.51961 330.410182 330.371608l0-121.154058c0-9.638865 7.799712-17.438577 17.429183-17.438577 9.639464 0 17.436178 7.799712 17.436178 17.438577L528.018188 733.390457c178.607504-8.855996 321.557184-151.78529 330.410182-330.371608l-121.192631 0c-9.634468 0-17.431182-7.799712-17.431182-17.434579 0-9.621477 7.796714-17.43418 17.431182-17.43418l121.192631 0C849.575372 189.563372 706.625492 46.629681 528.023184 37.777683M510.588005 472.758166c-48.148156 0-87.174696-39.02594-87.174696-87.174096 0-48.152153 39.02634-87.173696 87.174696-87.173696 48.151154 0 87.172697 39.021543 87.172697 87.173696C597.757704 433.732226 558.739159 472.758166 510.588005 472.758166"  horiz-adv-x="1024" />

    
    <glyph glyph-name="shandian" unicode="&#58891;" d="M257.344 510.656l209.792-119.808 25.344-14.592-163.456-435.968 327.36 341.248-0.192 0.128 96.896 101.76-228.352 128 105.92 315.392zM547.776 396.096L335.104 517.824l201.984 171.072-66.624-198.4 210.432-117.952-93.888-98.56-139.648-145.536z"  horiz-adv-x="1024" />

    
    <glyph glyph-name="weibo" unicode="&#59196;" d="M448.698182 413.789091c-96.814545-4.654545-175.010909-56.785455-175.010909-121.949091s78.196364-114.501818 175.010909-109.847273S623.709091 248.087273 623.709091 313.250909c-0.930909 64.232727-79.127273 105.192727-175.010909 100.538182z m65.163636-164.770909c-29.789091-39.098182-88.436364-57.716364-145.221818-26.065455-26.996364 14.894545-26.065455 43.752727-26.065455 43.752728s-11.170909 92.16 85.643637 103.330909c97.745455 12.101818 115.432727-81.92 85.643636-121.018182zM448.698182 311.389091c-6.516364-4.654545-7.447273-13.032727-3.723637-18.618182 2.792727-5.585455 11.170909-6.516364 16.756364-1.861818 5.585455 4.654545 8.378182 13.032727 4.654546 18.618182-2.792727 5.585455-10.24 6.516364-17.687273 1.861818zM403.083636 298.356364c-18.618182-1.861818-30.72-17.687273-30.72-33.512728 0-14.894545 14.894545-26.065455 32.581819-24.203636 17.687273 1.861818 32.581818 15.825455 32.581818 31.650909s-13.963636 27.927273-34.443637 26.065455zM512 896C229.003636 896 0 666.996364 0 384s229.003636-512 512-512 512 229.003636 512 512S794.996364 896 512 896z m197.352727-626.501818C669.323636 183.854545 538.065455 141.963636 441.250909 149.410909c-92.16 7.447273-211.316364 38.167273-223.418182 151.738182 0 0-6.516364 51.2 42.821818 117.294545 0 0 70.749091 99.607273 152.669091 128.465455 82.850909 27.927273 92.16-19.549091 92.16-48.407273-4.654545-24.203636-12.101818-38.167273 18.618182-28.858182 0 0 80.989091 38.167273 114.501818 4.654546 26.996364-26.996364 4.654545-65.163636 4.654546-65.163637s-11.170909-12.101818 12.101818-16.756363c21.410909-3.723636 94.021818-37.236364 53.992727-122.88z m-80.058182 236.450909c-8.378182 0-15.825455 7.447273-15.825454 15.825454 0 9.309091 7.447273 15.825455 15.825454 15.825455 0 0 99.607273 18.618182 87.505455-89.367273v-1.861818c-0.930909-7.447273-7.447273-13.963636-15.825455-13.963636-9.309091 0-15.825455 7.447273-15.825454 15.825454 0 1.861818 15.825455 73.541818-55.854546 57.716364zM797.789091 402.618182c-2.792727-18.618182-12.101818-11.170909-22.341818-11.170909-13.032727 0-23.272727 16.756364-23.272728 29.789091 0 11.170909 4.654545 22.341818 4.654546 22.341818 0.930909 4.654545 12.101818 34.443636-7.447273 78.196363-35.374545 60.509091-106.123636 60.509091-114.501818 57.716364-8.378182-3.723636-21.410909-5.585455-21.410909-5.585454-13.032727 0-23.272727 10.24-23.272727 23.272727 0 11.170909 7.447273 19.549091 16.756363 22.341818 0 0 0-0.930909 0.930909-0.930909s1.861818-0.930909 1.861819-0.930909c10.24 1.861818 45.614545 4.654545 79.127272-3.723637 62.370909-14.894545 146.152727-83.781818 108.916364-211.316363z"  horiz-adv-x="1024" />

    
    <glyph glyph-name="QQ" unicode="&#59198;" d="M512 896C229.003636 896 0 666.996364 0 384s229.003636-512 512-512 512 229.003636 512 512S794.996364 896 512 896z m210.385455-641.396364c-7.447273-9.309091-26.996364 1.861818-41.89091 32.581819-3.723636-13.963636-13.032727-36.305455-34.443636-64.232728 35.374545-8.378182 44.683636-42.821818 33.512727-61.44-8.378182-13.032727-26.996364-24.203636-59.578181-24.203636-58.647273 0-83.781818 15.825455-95.883637 26.996364-1.861818 2.792727-5.585455 3.723636-10.24 3.723636-4.654545 0-7.447273-0.930909-10.24-3.723636-11.170909-11.170909-37.236364-26.996364-95.883636-26.996364-32.581818 0-52.130909 11.170909-59.578182 24.203636-12.101818 18.618182-1.861818 53.061818 33.512727 61.44-20.48 27.927273-29.789091 50.269091-34.443636 64.232728-13.963636-30.72-34.443636-42.821818-41.890909-32.581819-5.585455 8.378182-8.378182 26.065455-7.447273 38.167273 3.723636 46.545455 34.443636 85.643636 53.061818 106.123636-2.792727 5.585455-8.378182 40.029091 14.894546 63.301819v1.861818c0 92.16 65.163636 158.254545 148.014545 158.254545 81.92 0 148.014545-66.094545 148.014546-158.254545v-1.861818c23.272727-23.272727 17.687273-57.716364 14.894545-63.301819 17.687273-20.48 49.338182-59.578182 53.061818-106.123636 0.930909-12.101818-0.930909-29.789091-7.447272-38.167273z"  horiz-adv-x="1024" />

    
    <glyph glyph-name="zhunshi" unicode="&#58939;" d="M818.49938987 551.91937707c-1.23739947 0-2.48899733 0.14525547-3.71219947 0.4652544-10.6396704 2.73691413-72.269376 67.218208-74.45257173 75.13625386-1.42634027 5.15273707 0.029488 10.8580992 3.79957013 14.65766934l47.48097493 48.1209728c3.7263968 3.84325547 8.61701867 6.43382187 13.71187307 7.26385173 6.88487787 1.01897067 13.44975787-0.98948267 17.91771947-5.72065173l55.32584853-56.02482134c4.46905493-4.52693867 6.41962453-10.97495893 5.32748053-17.69929066-0.80054187-4.90482027-3.30373653-9.72336107-7.05962133-13.551328l-47.55305707-48.19414507c-2.8384832-2.88216853-6.7833088-4.45376427-10.78601706-4.45376533zM774.74481067 630.7525408c10.98915627-11.87706987 31.1643392-32.32856533 42.99772266-43.62352213l33.5069888 33.9438464-43.0556064 43.59403413-33.44910506-33.9143584zM479.08932267 270.19309867000004a14.83896533 14.83896533 0 0 0-10.39284587 4.22113813c-5.8953952 5.73485013-6.02645227 15.16660907-0.2916032 21.0762016l183.59164907 188.86015253c5.72065173 5.8801056 15.16660907 6.04065067 21.0762016 0.2916032 5.8953952-5.73485013 6.02645227-15.16660907 0.2916032-21.0762016L489.7726784 274.70474666999996a14.858624 14.858624 0 0 0-10.68335573-4.511648zM496.19230293-60.62943786999995c-196.1960864 0-355.81516693 161.670128-355.815168 360.39998934s159.61798827 360.39998933 355.815168 360.39998933c196.21137707 0 355.82936533-161.670128 355.82936534-360.39998933S692.40258773-60.62943786999995 496.19230293-60.62943786999995z m0 690.9888064c-179.7636832 0-326.00508693-148.30883413-326.005088-330.58990933s146.2414048-330.58990933 326.005088-330.58990933S822.21158827 117.48729173000004 822.21158827 299.76945920000003 675.95489387 630.35936853 496.19230293 630.35936853zM539.9894752 625.93509227c-8.2380448 0-14.90558613 6.66644907-14.90558613 14.90558613v54.49691093c0 8.2380448 6.66644907 14.90558613 14.90558613 14.90558507H585.2577664v84.438048a3.89458667 3.89458667 0 0 1-3.8858496 3.8858496H419.4680704c-4.3816832 0-12.05181333-3.7121984-13.55132693-6.054848l0.4073696-82.2690496h43.12877973c8.2380448 0 14.90558613-6.66644907 14.90558613-14.90558507v-54.49691093c0-8.2380448-6.66644907-14.90558613-14.90558613-14.90558613s-14.90558613 6.66644907-14.90558507 14.90558613v39.5913248h-43.05560746c-8.2380448 0-14.90558613 6.66644907-14.90558614 14.90558613v99.34254187c0 20.56726187 25.40000107 33.69702187 42.880864 33.6970208h161.9038464c18.58720427 0 33.69702187-15.10872533 33.69702187-33.6970208v-99.34254187c0-8.2380448-6.66644907-14.90558613-14.90558613-14.90558613h-45.2682912v-39.5913248c0.00109227-8.23913707-6.6653568-14.90558613-14.90449387-14.90558613z"  horiz-adv-x="1024" />

    
    <glyph glyph-name="tuihuan" unicode="&#59171;" d="M983.838803 582.637331A511.938806 511.938806 0 1 1 1023.96018 383.97421299999996a508.619448 508.619448 0 0 1-40.121377 198.663118z m-58.751651-372.475902A448.143324 448.143324 0 1 0 960.164699 383.97421299999996a445.132975 445.132975 0 0 0-35.077547-173.812784zM577.391807 511.565176H431.110761l73.135539 73.13554a31.897741 31.897741 0 0 1-45.105399 45.105399l-127.590964-127.590964q-0.55821-0.55821-1.086517-1.146325l-0.478466-0.548242-0.538275-0.627987c-0.199361-0.239233-0.388754-0.488434-0.578146-0.727667l-0.378786-0.488434c-0.199361-0.269137-0.388754-0.548242-0.588114-0.81738l-0.30901-0.448562c-0.189393-0.289073-0.368818-0.578147-0.55821-0.86722l-0.279105-0.448562c-0.169457-0.289073-0.338913-0.578147-0.498403-0.86722l-0.279105-0.498402c-0.149521-0.269137-0.289073-0.548242-0.418658-0.827348l-0.289073-0.588114c-0.119617-0.249201-0.229265-0.50837-0.338913-0.757572s-0.199361-0.45853-0.299042-0.687795-0.179425-0.448562-0.269137-0.677827-0.209329-0.528306-0.299041-0.807411-0.139553-0.398722-0.199361-0.598083-0.199361-0.598083-0.289073-0.897124-0.09968-0.35885-0.149521-0.528306-0.179425-0.647923-0.269137-0.996804c0-0.169457-0.079744-0.328945-0.119617-0.498403-0.079744-0.338913-0.159489-0.677827-0.219297-0.996804 0-0.169457-0.059808-0.338913-0.089712-0.50837-0.059808-0.338913-0.119617-0.677827-0.169457-0.996805s0-0.388754-0.069776-0.578146-0.079744-0.637955-0.109649-0.996805 0-0.518338-0.059808-0.777507 0-0.518338-0.059808-0.777508v-3.149901c0-0.259169 0-0.518338 0.059808-0.777508s0-0.518338 0.059808-0.777507 0.069776-0.637955 0.109649-0.996805 0-0.388754 0.069776-0.578146 0.109648-0.677827 0.169457-0.996805c0-0.169457 0.059808-0.338913 0.089712-0.50837 0.069776-0.338913 0.149521-0.677827 0.219297-0.996804 0-0.169457 0.069776-0.328945 0.119617-0.498403 0.079744-0.328945 0.169457-0.657891 0.269137-0.996804s0.09968-0.35885 0.149521-0.528306 0.189393-0.598083 0.289073-0.897124 0.129585-0.398722 0.199361-0.598083 0.199361-0.538274 0.299041-0.807411 0.169457-0.448562 0.269137-0.677827l0.299042-0.687796c0.09968-0.229265 0.229265-0.50837 0.338913-0.757571l0.289073-0.588114c0.139553-0.279105 0.279105-0.548242 0.418658-0.827348l0.279105-0.498402c0.159489-0.289073 0.328945-0.578147 0.498403-0.86722l0.279105-0.448562c0.179425-0.289073 0.35885-0.578147 0.55821-0.86722l0.30901-0.448562c0.189393-0.279105 0.378786-0.548242 0.588114-0.81738l0.378786-0.488434c0.189393-0.249201 0.378786-0.488434 0.578146-0.727667l0.538275-0.627987 0.478466-0.548242q0.528306-0.588115 1.086517-1.146325l127.590964-127.590964a31.897741 31.897741 0 0 1 45.105399 45.115367L431.120729 447.769695H577.391807a127.590964 127.590964 0 0 0 0-255.181928H417.903102a31.897741 31.897741 0 0 1 0-63.795482h159.488705c105.531682 0 191.386446 85.854763 191.386446 191.386446s-85.854763 191.386446-191.386446 191.386445z"  horiz-adv-x="1027" />

    
    <glyph glyph-name="zhengpin" unicode="&#58886;" d="M14.99072-44.80799999999999a30.424 30.424 0 0 1 41.736 10.776l138.584 235.08a403.256 403.256 0 0 1 75.072-68.88l-104.056-179.52a30.48 30.48 0 0 1 11.072-41.664 30.48 30.48 0 0 1 41.68 11.088L322.67072 100.79999999999995a398.04 398.04 0 0 1 178.60799999-42.176 397.904 397.904 0 0 1 191.43200001 48.82399999L803.23072-78.23199999999997a30.528 30.528 0 0 1 41.792-10.6 30.512 30.512 0 0 1 10.6 41.792l-111.784 187.784a403.592 403.592 0 0 1 70.08 68.536L967.71072-34.799999999999955a30.48 30.48 0 0 1 51.584 32.504l-168.16 266.888a397.952 397.952 0 0 1 50.592 194.544c0 220.84-179.648 400.488-400.456 400.488-220.85600001 0-400.552-179.64-400.552-400.488a398.032 398.032 0 0 1 55.872-203.704l-152.384-258.496a30.504 30.504 0 0 1 10.784-41.744zM501.27872 798.656c187.184 0 339.49600001-152.32 339.496-339.51999999 0-187.23200001-152.304-339.544-339.496-339.54400001-187.24799999 0-339.592 152.32-339.592 339.544 0 187.2 152.344 339.52 339.592 339.52zM320.19072 389.304L426.39072 373.84799999999996 473.91872 277.6c10.272-20.82400001 44.4-20.792 54.672 0.016l47.496 96.232 106.224 15.456a30.456 30.456 0 0 1 16.88 51.968l-76.856 74.92 18.136 105.8a30.44 30.44 0 0 1-12.12 29.8 30.4 30.4 0 0 1-32.10400001 2.32l-94.99999999-49.92-95.064 49.952a30.424 30.424 0 0 1-32.088-2.344 30.48 30.48 0 0 1-12.12-29.8l18.184-105.824-76.88-74.896a30.48 30.48 0 0 1 16.912-51.976zM434.18272 483.728a30.416 30.416 0 0 1 8.76800001 26.968l-10.44000001 60.72 54.552-28.632a30.36 30.36 0 0 1 28.36 0l54.52 28.632-10.416-60.72a30.392 30.392 0 0 1 8.768-26.968l44.104-42.984-60.952-8.872a30.488 30.488 0 0 1-22.952-16.664l-27.256-55.248-27.296 55.248a30.464 30.464 0 0 1-22.936 16.66399999l-60.928 8.87200001 44.104 42.984z"  horiz-adv-x="1024" />

    
    <glyph glyph-name="nvzhuangqunzi-" unicode="&#58884;" d="M682.496 221.696c-5.632 27.648-17.408 157.184-46.08 200.192-6.144 9.728-8.704 22.016-8.704 36.864v0.512c1.024 13.312 2.56 27.648 3.584 34.816 0 1.536 0.512 2.56 0.512 3.584 0.512 4.608 1.536 8.704 2.56 13.312 8.704 43.008 23.552 90.624 23.552 125.952 0 65.536-33.792 84.992-33.792 84.992 11.776 49.152 19.968 75.776 19.968 75.776l-9.728 4.096c-6.656-6.656-22.016-78.848-22.016-78.848-38.4-38.4-99.328-31.744-99.328-31.744s-60.928-7.68-99.84 30.72c0 0-15.36 72.192-22.016 78.848l-9.728-4.096s8.192-26.624 19.968-75.264c0 0-33.792-19.456-33.792-84.992 0-34.304 13.312-79.36 22.528-120.832v-2.048c0-0.512 0.512-1.024 0.512-1.536 0-0.512 0-1.024 0.512-1.024 1.536-5.632 3.584-15.872 3.584-15.872 0.512-4.096 1.536-11.264 2.048-18.432 0.512-2.56 0.512-5.12 0.512-7.68 0.512-3.584 0.512-6.656 0.512-9.728h-0.512c0-14.848-2.048-28.16-8.704-37.888-28.672-43.008-40.96-172.544-46.08-200.192-5.632-27.648-18.944-129.024-25.6-158.72-6.656-29.696-13.312-70.656-13.312-70.656s28.672-8.704 55.296-6.656c0 0-4.096-11.776 29.696-8.192 33.792 3.072 67.072 4.096 90.624 2.56 23.04-1.024 7.168-5.632 33.28-5.632s9.728 4.608 33.28 5.632c23.04 1.024 56.832 0.512 90.624-2.56s29.696 8.192 29.696 8.192c26.624-2.048 55.296 6.656 55.296 6.656s-6.656 40.96-13.312 70.656c-7.168 30.208-19.968 131.584-25.6 159.232z m-58.88 282.112c-2.56-3.584-5.12-9.216-2.048-11.776-1.024-5.12-1.024-10.752-1.536-15.872-3.072 3.584-12.8 0.512-12.8 0.512-7.168 3.072 6.144-15.36 11.776-8.192 0-3.072-0.512-6.144-0.512-8.704-6.656 0.512-12.8 1.024-19.456 1.536-1.024 3.584-3.072 6.656-3.072 6.656 0.512 5.12-5.12-0.512-6.656-6.144-14.336 0.512-28.16 1.024-42.496 1.024-3.072 3.584-12.8 0.512-12.8 0.512-1.536 0.512-2.048 0.512-2.048-0.512h-1.536c0.512 1.024 0.512 2.048 0.512 3.072 0 4.096-3.072 7.168-7.168 7.168-4.096 0-7.168-3.072-7.168-7.168 0-1.024 0.512-2.048 1.024-3.072-18.432 0-37.376-0.512-55.808-1.024-1.024 2.048-2.048 3.584-2.048 3.584 0.512 4.096-3.584 1.024-5.632-3.584h-9.728c3.072 2.56 5.12 9.216 5.12 9.216 7.168 4.608-19.968 3.584-12.288-7.168 1.024-1.024 1.536-2.048 2.56-2.56h-7.68c1.536 1.536 1.536 3.072 0 5.632-6.144 9.216-10.752-4.096-11.264-5.632-4.608 0-9.216 0-13.312-0.512v3.584c3.584 0.512 14.336 14.336 4.096 16.384-2.048 0.512-4.096 0.512-5.12 0-0.512 6.144-1.024 11.776-2.048 17.92 1.536 3.072 2.56 6.144 2.56 6.144 3.072 2.048 0 2.56-4.608 2.56-0.512 2.048-1.024 4.608-1.536 6.656h10.24c-0.512-1.024-0.512-1.536-0.512-2.56 0-4.096 3.072-7.168 7.168-7.168 4.096 0 7.168 3.072 7.168 7.168 0 1.024 0 2.048-0.512 3.072 15.872 0.512 31.744 0.512 47.616 1.024-1.536-1.536-1.536-3.584 0-6.144 6.656-9.216 11.264 3.072 12.288 6.144h22.016c3.584-4.096 10.24-9.216 12.8-2.048 0.512 1.024 0.512 1.536 0.512 2.048h32.256c-1.024-1.024-1.536-2.56-1.536-4.096 0-4.096 3.072-7.168 7.168-7.168 4.096 0 7.168 3.072 7.168 7.168 0 1.536-0.512 3.072-1.536 4.096 17.408-0.512 35.328-1.024 52.736-2.048-5.12-0.512-11.776-3.584-7.68-9.216 7.168-10.24 12.288 7.168 12.288 7.168 1.536 1.024 1.536 1.536 1.024 2.048 1.536 0 3.072 0 4.608-0.512 0 0 0-0.512 0.512-0.512-2.048-4.096-2.56-6.656-3.072-8.704zM531.456 472.064c-6.656-4.096 18.432-3.584 11.776 6.144-6.656 9.728-11.776-6.144-11.776-6.144zM501.248 477.184c-4.608-10.752 11.264-6.656 11.264-6.656 6.656-3.584-7.168 17.408-11.264 6.656zM523.264 492.032c-12.8 2.56-4.608-14.336-4.608-14.336-2.56-8.192 17.408 11.776 4.608 14.336zM578.56 500.736c4.096 11.776-12.8 6.144-12.8 6.144-7.68 3.584 8.192-17.92 12.8-6.144zM551.424 484.352c12.8-1.024 2.56 13.824 2.56 13.824 1.536 8.192-15.36-12.8-2.56-13.824zM532.992 496.128c7.168-10.24 12.288 7.168 12.288 7.168 7.168 4.608-19.456 3.584-12.288-7.168zM460.8 476.16m-7.168 0a7.168 7.168 0 1 1 14.336 0 7.168 7.168 0 1 1-14.336 0ZM481.28 489.472c-6.656 9.728-11.776-6.144-11.776-6.144-6.656-4.096 17.92-3.584 11.776 6.144zM471.552 473.6c-7.68 3.584 8.192-18.432 12.8-6.144 4.608 11.776-12.8 6.144-12.8 6.144zM437.248 488.448c-4.608-10.752 11.264-6.656 11.264-6.656 7.168-3.584-6.656 17.408-11.264 6.656zM459.776 503.296c-12.8 2.56-4.608-14.336-4.608-14.336-2.56-8.192 17.408 11.776 4.608 14.336zM595.968 479.232m-7.168 0a7.168 7.168 0 1 1 14.336 0 7.168 7.168 0 1 1-14.336 0ZM605.184 486.4c-6.656-4.096 18.432-3.584 11.776 6.144-7.168 9.216-11.776-6.144-11.776-6.144zM572.928 465.92c7.168-10.24 12.288 7.168 12.288 7.168 7.68 4.096-19.456 3.072-12.288-7.168zM572.928 491.008c-4.608-10.752 11.264-6.656 11.264-6.656 7.168-3.072-6.656 17.408-11.264 6.656zM595.456 506.368c-12.8 2.56-4.608-14.336-4.608-14.336-2.56-8.704 17.408 11.776 4.608 14.336zM491.008 495.104c12.8-1.024 2.56 13.824 2.56 13.824 1.024 8.704-15.36-12.288-2.56-13.824zM440.832 500.736c4.096 11.776-12.8 6.144-12.8 6.144-7.68 3.584 8.192-17.92 12.8-6.144zM413.696 484.352c12.8-1.024 2.56 13.824 2.56 13.824 1.024 8.192-15.36-12.8-2.56-13.824z"  horiz-adv-x="1024" />

    
    <glyph glyph-name="icon-test1" unicode="&#58993;" d="M513.888 896c-282.75 0-511.996-229.25-511.996-512 0-174.154 86.987-327.979 219.863-420.475 25.938 90.337 91.558 158.35 180.838 189.337 24.082 8.647 51.96 14.53 80.924 16.435-69.941-12.852-68.991-12.54-68.028-12.248 24.129 7.506 52.006 12.371 80.839 13.515-53.139-6.519-51.919-6.294-50.706-6.052 17.949 3.776 38.712 6.109 59.959 6.452-34.267-2.331-32.896-2.139-31.513-1.981 11.74 1.447 25.415 2.316 39.276 2.397l-6.651-1.038c1.771-0.121 3.658-0.121 5.55 0h1.654c-130.471 0-236.663 103.671-240.858 233.121-0.146 0.092-0.292 0.167-0.438 0.258-8.296 155.104 131.788 250.454 233.392 248.537 2.629 0.087 5.254 0.2 7.904 0.2 2.517 0 5.004-0.113 7.496-0.188 29.392 0.5 61.938-7.083 93.212-21.863 38.84-18.179 70.965-45.043 94.861-78.228 13.093-1.93 49.851-66.913 45.489-148.455l-0.196-0.117c-4.121-129.521-110.337-233.263-240.863-233.263h25.983c14.799-1.151 28.144-2.982 41.232-5.53-25.774 4.013-24.395 3.822-23.003 3.643 17.989-2.25 34.041-5.631 49.585-10.198-31.927 7.527-28.656 6.919-25.406 6.269 1.254-0.25 2.513-0.479 3.754-0.746 29.464-6.308 55.501-15.626 79.803-27.879-52.391 20.854-51.37 20.521-50.336 20.2 3.283-1.021 6.538-2.083 9.763-3.204 89.25-30.962 154.896-98.954 180.913-189.271 132.788 92.504 219.708 246.279 219.708 420.371 0 282.75-229.25 512-512.004 512zM754.754 403.608c-63.754-39.792-230.933 17.762-280.608 105.492-46.325-81.262-124.821-153.238-201.113-105.633 4.196-129.45 110.383-233.121 240.858-233.121 130.521 0 236.737 103.742 240.862 233.262zM614.6 630.408c40.749-19.606 74.482-48.051 99.756-83.014-72.864 72.541-110.477 91.72-151.978 100.237zM521.388 652.271c-2.496 0.075-4.979 0.188-7.496 0.188-2.65 0-5.275-0.113-7.904-0.2 2.533-0.050 5.067-0.104 7.554-0.275 2.575 0.179 5.208 0.246 7.846 0.288zM441.979 163.796c1.204 0.254 2.425 0.479 3.637 0.721-1.212-0.242-2.433-0.471-3.637-0.721zM455.567 166.354zM553.929 168.987c1.4-0.158 2.779-0.35 4.171-0.529-1.392 0.179-2.771 0.371-4.171 0.529zM567.942 167.083zM412.617 156.154c0.954 0.296 1.904 0.608 2.867 0.9-0.962-0.292-1.908-0.604-2.867-0.9zM582.283 164.529c1.25-0.25 2.513-0.483 3.754-0.746-1.242 0.267-2.5 0.5-3.754 0.746zM612.417 157.071c1.033-0.313 2.054-0.646 3.087-0.967-1.029 0.321-2.050 0.654-3.087 0.967zM625.267 152.9l2.138-0.758c-6.016-16.783-15.068-31.158-26.595-43.133 33.266-5.429 28.962-120.563 3.195-102.367l-90.117 63.308 2.95 2.079c-0.983-0.025-1.962-0.075-2.95-0.075-1.029 0-2.046 0.054-3.071 0.079l2.95-2.083-90.117-63.308c-25.913-18.229-30.204 97.329-12.883 123.471-8.405 13.702-14.218 29.888-16.324 47.218 6.678-24.98 7.407-24.722 8.141-24.468-89.279-30.992-154.9-99.004-180.838-189.337 82.854-57.679 183.537-91.525 292.138-91.525 108.667 0 209.404 33.888 292.292 91.629-26.013 90.317-91.658 158.313-180.908 189.271zM469.929 168.462c1.379 0.175 2.75 0.367 4.133 0.525-1.387-0.158-2.754-0.35-4.133-0.525zM410.771 130.112c3.442 5.196 7.733 6.879 12.883 3.258l45.117-31.654 42.046-29.688c1.025-0.025 2.042-0.079 3.071-0.079 0.987 0 1.962 0.050 2.95 0.075l42.054 29.692 45.117 31.654c5.175 3.654 9.475 1.913 12.925-3.388 8.441 13.722 14.278 29.937 16.389 47.301l-8.052-24.385c-24.663 8.842-53.214 14.861-82.875 16.818 72.080-13.293 71.059-12.959 70.025-12.647-24.097 7.492-51.936 12.349-80.731 13.492 53.106-6.517 51.844-6.283 50.598-6.033-18.317 3.839-39.55 6.257-61.269 6.694 32.182-1.743 15.036-0.26-2.415-0.042 38.113-2.544 36.734-2.353 35.334-2.194-11.701 1.445-25.33 2.313-39.145 2.393l-2.551-1.035c-1.892-0.121-3.779-0.121-5.55 0h-18.546c-14.85-1.154-28.24-2.989-41.374-5.542 25.907 4.025 24.54 3.834 23.161 3.659-19.646-2.496-37.14-6.192-54.090-11.16 36.386 8.485 33.069 7.873 29.777 7.214-1.212-0.242-2.429-0.467-3.637-0.721-29.504-6.311-55.576-15.639-79.912-27.909 52.454 20.88 51.508 20.563 50.55 20.267-29.76-9.35-55.652-21.793-79.31-37.353 73.082 16.57 82.094 2.247 93.568-9.694zM604.008 133.375l-45.117-31.654-45.004-31.771 90.117-63.308c25.767-18.196 30.071 96.938 12.925 123.342-3.446 5.304-7.746 7.046-12.921 3.392zM423.654 133.375c-5.15 3.621-9.442 1.938-12.883-3.258-17.321-26.138-13.029-141.7 12.883-123.471l90.117 63.308-44.996 31.771-45.121 31.65zM474.146 509.1c49.675-87.729 216.854-145.283 280.608-105.492l0.196 0.117c4.362 81.546-32.392 146.529-83.004 189.6-32.348 27.683-72.064 47.703-115.793 56.764 27.172-4.902-5.374 2.682-34.766 2.182-2.638-0.046-5.271-0.108-7.85-0.283 8.342-29.533-8.271-88.3-39.392-142.888zM474.146 509.1c31.121 54.587 47.733 113.354 39.392 142.887-2.792 0.181-6.057 0.285-9.346 0.286-99.808 1.905-239.891-93.445-231.6-248.549 0.146-0.092 0.292-0.167 0.438-0.258 76.296-47.604 154.792 24.371 201.117 105.633z"  horiz-adv-x="1025" />

    
    <glyph glyph-name="fanhui" unicode="&#59076;" d="M516.544 498.752a31.904 31.904 0 0 1-22.624-9.376L86.624 82.08000000000004a32 32 0 1 1 45.248-45.248l384.672 384.64 384.672-384.64a32 32 0 0 1 45.248 45.248L539.2 489.376a31.904 31.904 0 0 1-22.624 9.376zM96 704h832a32 32 0 0 0 0-64H96a32 32 0 1 0 0 64z"  horiz-adv-x="1024" />

    
    <glyph glyph-name="gantanhao" unicode="&#59557;" d="M675.328 778.282667A425.429333 425.429333 0 0 1 512 810.666667C276.352 810.666667 85.333333 619.648 85.333333 384s191.018667-426.666667 426.666667-426.666667 426.666667 191.018667 426.666667 426.666667c0 56.746667-11.093333 112-32.384 163.328a21.333333 21.333333 0 0 1-39.402667-16.341333A382.762667 382.762667 0 0 0 896 384c0-212.074667-171.925333-384-384-384S128 171.925333 128 384 299.925333 768 512 768c51.114667 0 100.8-9.984 146.986667-29.12a21.333333 21.333333 0 0 1 16.341333 39.402667zM490.666667 447.850667c0 11.861333 9.472 21.482667 21.333333 21.482666 11.776 0 21.333333-9.6 21.333333-21.482666v-255.701334C533.333333 180.266667 523.861333 170.666667 512 170.666667c-11.776 0-21.333333 9.6-21.333333 21.482666V447.850667z m0 127.957333a21.333333 21.333333 0 1 0 42.666666 0v-42.282667a21.333333 21.333333 0 1 0-42.666666 0v42.282667z"  horiz-adv-x="1024" />

    
    <glyph glyph-name="dingdan" unicode="&#58949;" d="M401.778125 226.97812499999998h281.25a14.0625 14.0625 0 1 0 0-28.125h-281.25a14.0625 14.0625 0 1 0 0 28.125zM331.465625 226.97812499999998a14.0625 14.0625 0 1 0 0-28.125 14.0625 14.0625 0 1 0 0 28.125zM401.778125 367.603125h281.25a14.0625 14.0625 0 1 0 0-28.125h-281.25a14.0625 14.0625 0 1 0 0 28.125zM331.465625 367.603125a14.0625 14.0625 0 1 0 0-28.125 14.0625 14.0625 0 1 0 0 28.125zM401.778125 508.228125h281.25a14.0625 14.0625 0 1 0 0-28.125h-281.25a14.0625 14.0625 0 1 0 0 28.125zM331.465625 508.228125a14.0625 14.0625 0 1 0 0-28.125 14.0625 14.0625 0 0 0 0 28.125zM561.5140625 620.728125h-112.5c-27.140625 0-49.21875 22.078125-49.21875 49.21875v42.1875c0 27.140625 22.078125 49.21875 49.21875 49.21875h112.5c27.140625 0 49.21875-22.078125 49.21875-49.21875v-42.1875c0-27.1265625-22.0921875-49.21875-49.21875-49.21875z m-112.5 112.5c-11.6296875 0-21.09375-9.4640625-21.09375-21.09375v-42.1875c0-11.6296875 9.4640625-21.09375 21.09375-21.09375h112.5c11.6296875 0 21.09375 9.4640625 21.09375 21.09375v42.1875c0 11.6296875-9.4640625 21.09375-21.09375 21.09375h-112.5zM682.9296875 29.5546875H331.5359375c-69.8765625 0-126.73125 54.759375-126.73125 122.0625v432c0 67.303125 56.840625 122.0625 126.73125 122.0625h27.3796875a14.0625 14.0625 0 0 0 0-28.125h-27.3796875c-54.365625 0-98.60625-42.1453125-98.60625-93.9375v-432c0-51.80625 44.240625-93.9375 98.60625-93.9375h351.39375c54.365625 0 98.60625 42.13125 98.60625 93.9375v432c0 51.7921875-44.240625 93.9375-98.60625 93.9375h-27.6046875a14.0625 14.0625 0 1 0 0 28.125h27.6046875c69.8765625 0 126.73125-54.759375 126.73125-122.0625v-432c0-67.3171875-56.8546875-122.0625-126.73125-122.0625z"  horiz-adv-x="1024" />

    
    <glyph glyph-name="wenhao" unicode="&#58880;" d="M455.408941 101.07482400000004h84.87153v84.871529h-84.87153v-84.871529z m130.168471 265.938823c-42.465882-28.310588-62.253176-62.223059-62.253177-99.026823v-25.449412H455.378824v31.111529c-2.831059 50.928941 22.648471 96.195765 67.915294 130.168471 50.898824 36.743529 76.378353 73.547294 70.716235 107.52-5.662118 50.898824-33.942588 79.209412-87.702588 82.04047-62.253176 2.831059-101.857882-33.972706-115.983059-110.351058l-76.408471 19.817411c22.648471 113.152 93.364706 166.912 206.546824 164.080941 99.026824-5.662118 149.955765-53.76 161.249882-147.124705 2.861176-56.591059-28.280471-107.52-96.165647-152.786824zM512 836.698353C263.017412 836.668235 59.331765 632.9825880000001 59.331765 384c0-249.012706 203.685647-452.728471 452.668235-452.728471S964.668235 135.01741200000004 964.668235 384 761.012706 836.668235 512 836.668235z m0-961.957647C231.905882-125.28941199999997 2.710588 103.90588200000002 2.710588 384 2.710588 664.094118 231.905882 893.289412 512 893.289412S1021.289412 664.094118 1021.289412 384 792.094118-125.28941199999997 512-125.28941199999997z"  horiz-adv-x="1024" />

    
    <glyph glyph-name="wujiaoxing" unicode="&#58953;" d="M559.826357 857.903156l114.290533-234.930541c6.349474-19.048422 25.397896-31.74737 44.446319-31.74737l247.629488-38.096844c50.795792-6.349474 69.844215-69.844215 31.74737-107.941059L820.154794 261.052594c-12.698948-12.698948-19.048422-31.74737-19.048422-57.145267l44.446318-260.328436c6.349474-50.795792-44.446318-88.892637-82.543163-63.494741l-222.231592 120.640008c-19.048422 6.349474-38.096844 6.349474-57.145266 0L261.401076-119.91584999999998c-44.446318-25.397896-95.242111 12.698948-82.543162 63.494741l44.446318 260.328436c6.349474 19.048422 0 38.096844-19.048422 57.145267L20.121062 451.536816c-38.096844 31.74737-19.048422 95.242111 31.74737 101.591585l247.629489 38.096844c19.048422 0 38.096844 12.698948 44.446318 31.74737L458.234772 857.903156c19.048422 50.795792 82.543163 50.795792 101.591585 0z m0 0"  horiz-adv-x="1026" />

    
    <glyph glyph-name="icon--" unicode="&#59159;" d="M627.2 576c-10.24 10.24-25.6 10.24-35.84 0l-197.12-197.12c-5.12-5.12-7.68-15.36-7.68-23.04-2.56-7.68 0-15.36 7.68-23.04l197.12-197.12c10.24-10.24 25.6-10.24 35.84 0 10.24 10.24 10.24 25.6 0 35.84L445.44 358.4l181.76 181.76c10.24 10.24 10.24 25.6 0 35.84zM512 768C286.72 768 102.4 583.68 102.4 358.4s184.32-409.6 409.6-409.6 409.6 184.32 409.6 409.6S737.28 768 512 768z m0-768c-197.12 0-358.4 161.28-358.4 358.4S314.88 716.8 512 716.8s358.4-161.28 358.4-358.4-161.28-358.4-358.4-358.4z"  horiz-adv-x="1024" />

    
    <glyph glyph-name="shang" unicode="&#58882;" d="M853.333 372.622l-39.822-45.51-301.511 256-301.511-256-39.822 39.821L512 668.444z"  horiz-adv-x="1024" />

    
    <glyph glyph-name="shanchu" unicode="&#58895;" d="M829.44 594.4422400000001h-123.97056c-0.75776 0.04096-1.50528 0.11264-2.26816 0.11264h-70.76864v49.93024c0 22.58432-18.37568 40.96-40.96 40.96h-153.6c-22.58432 0-40.96-18.37568-40.96-40.96v-49.93024H324.32128c-0.768 0-1.51552-0.07168-2.26816-0.11264H194.56v-40.96h88.80128v-429.96736c0-22.58432 18.37568-40.96 40.96-40.96h378.88c22.58432 0 40.96 18.37568 40.96 40.96V553.48224H829.44v40.96z m-391.56736 50.04288h153.6l-0.05632-49.93024H437.87264v49.93024z m265.32864-541.45024v20.48h0.00512l-0.00512-20.48z m-0.06144 20.48H324.32128V553.48224h104.05888a40.86784 40.86784 0 0 1 9.49248-1.15712h153.6c3.27168 0 6.44096 0.42496 9.49248 1.15712h102.24128l-0.06656-429.96736zM423.936 431.30368a20.48 20.48 0 0 1-20.48-20.48v-153.6a20.48 20.48 0 0 1 40.96 0v153.6a20.48 20.48 0 0 1-20.48 20.48zM600.28928 431.30368a20.48 20.48 0 0 1-20.48-20.48v-153.6a20.48 20.48 0 0 1 40.96 0v153.6a20.48 20.48 0 0 1-20.48 20.48zM514.67264 431.30368a20.48 20.48 0 0 1-20.48-20.48v-153.6a20.48 20.48 0 0 1 40.96 0v153.6a20.48 20.48 0 0 1-20.48 20.48z"  horiz-adv-x="1024" />

    
    <glyph glyph-name="naozhong" unicode="&#58885;" d="M493.9 659.2c175 0 317.4-142.4 317.4-317.4S668.9 24.5 493.9 24.5 176.5 166.9 176.5 341.9s142.4 317.3 317.4 317.3m0 35.6c-194.9 0-353-158-353-353s158-353 353-353 353 158 353 353-158.1 353-353 353zM493.9 623.7c158.6 0 287.7-126.4 287.7-281.8S652.5 60.1 493.9 60.1 206.2 186.5 206.2 341.9s129.1 281.8 287.7 281.8m0 35.5c-178.6 0-323.3-142.1-323.3-317.4s144.7-317.4 323.3-317.4 323.3 142.1 323.3 317.4-144.7 317.4-323.3 317.4zM229.8 793.2c20.3 0 40-4.7 57.7-13.7l-172-172C90.9 655.7 99 715.4 139.4 755.7c24.1 24.2 56.3 37.5 90.4 37.5m0 35.6c-41.9 0-83.7-16-115.6-47.9-62.9-62.9-63.8-164-3.1-228.2L342.4 784c-31.6 29.9-72.1 44.8-112.6 44.8zM795.8 793.2c34.2 0 66.3-13.3 90.5-37.5 40.3-40.3 48.4-100.1 23.9-148.3L738.1 779.5c17.7 9 37.4 13.7 57.7 13.7m0 35.6c-40.5 0-81-14.9-112.6-44.8l231.3-231.3c60.7 64.2 59.7 165.3-3.1 228.2-31.9 32-73.8 47.9-115.6 47.9zM496.9 331c-6.6 0-11.9 5.3-11.9 11.9V550.5c0 6.6 5.3 11.9 11.9 11.9 6.6 0 11.9-5.3 11.9-11.9v-207.6c-0.1-6.6-5.4-11.9-11.9-11.9zM181.2-60.8l-20.9 20.9c-1.2 1.2-1.2 3.1 0 4.2l121.6 121.6c1.2 1.2 3.1 1.2 4.2 0L307 65c1.2-1.2 1.2-3.1 0-4.2L185.4-60.8c-1.1-1.2-3-1.2-4.2 0zM801.5-60.8l20.9 20.9c1.2 1.2 1.2 3.1 0 4.2L700.9 85.9c-1.2 1.2-3.1 1.2-4.2 0l-21-20.9c-1.2-1.2-1.2-3.1 0-4.2l121.6-121.6c1.2-1.2 3.1-1.2 4.2 0zM488.5 351.3c4.6 4.6 12.1 4.6 16.8 0l73.4-73.4c4.6-4.6 4.6-12.1 0-16.8-4.6-4.6-12.1-4.6-16.8 0l-73.4 73.4c-4.6 4.6-4.6 12.1 0 16.8z"  horiz-adv-x="1024" />

    
    <glyph glyph-name="baoyou" unicode="&#58898;" d="M1134.076379 5.250354000000016h-34.871038c0.040554 1.448373 0.110076 2.888057 0.110076 4.34512a152.079208 152.079208 0 0 1-304.158416 0c0-1.457064 0.069522-2.896747 0.110077-4.34512H482.308345a26.070721 26.070721 0 0 0-26.070721 26.070721V616.463932a46.347949 46.347949 0 0 0 46.347949 46.347949h260.484164L1160.1471 431.697833V31.32107499999995a26.070721 26.070721 0 0 0-26.070721-26.070721zM970.410184 425.278642H580.797737v-179.598303h138.539813l2.875021-2.875021 2.875022 2.875021H970.410184V425.278642z m82.557284-63.004243h-42.002829v-56.486563h42.002829v56.486563z m-171.084764 50.693069H955.202263v-37.725782L830.190257 257.99151300000005h-92.79149L887.128713 407.72146z m73.319559-154.975955h-105.524141l105.524141 98.971701V257.99151300000005z m-333.673369 0L775.60396 412.06658l-0.900888 0.900888h93.092753l-154.975955-154.975955h-91.290976zM598.902405 347.088204l65.879264 65.879264h87.144283L598.902405 259.94392100000005v87.144283z m0 65.879264h41.300367L598.902405 371.6671V412.967468z m0-154.975955v0.94434l0.944339-0.94434h-0.944339zM414.234795 9.595473999999967h-41.810195c0.072419 1.924888 0.144837 3.849777 0.144837 5.793493a152.079208 152.079208 0 1 1-304.158416 0c0-1.943717 0.073867-3.868605 0.144838-5.793493H26.750008a26.070721 26.070721 0 0 0-26.070721 26.070721V246.704339a17.264611 17.264611 0 0 0 5.027304 17.619463l107.808227 179.675066A17.371791 17.371791 0 0 0 130.353607 457.142857a17.670156 17.670156 0 0 0 1.781499-0.089799H414.234795a26.070721 26.070721 0 0 0 26.070721-26.070721V35.666195000000016a26.070721 26.070721 0 0 0-26.070721-26.070721z m-55.03819 398.302687h-0.036209a15.184747 15.184747 0 0 1-14.447525 14.447525V422.381895H170.908062v-0.00869a15.194885 15.194885 0 0 1-13.54374-8.68155h-0.092695L74.020571 267.405941h0.144838A15.904588 15.904588 0 0 1 86.902405 244.305833V244.23196600000006h256.362093v0.036209c0.241878-0.011587 0.479412-0.036209 0.724187-0.036209a15.207921 15.207921 0 0 1 15.035564 13.035361H359.196605V407.898161z m-139.043847-264.328147a133.250354 133.250354 0 1 0-133.250353-133.250353 133.250354 133.250354 0 0 0 133.250353 133.250353z m0-195.53041a62.280057 62.280057 0 1 1-62.280056 62.280057 62.280057 62.280057 0 0 1 62.280056-62.280057z m727.083451 191.18529a133.250354 133.250354 0 1 0-133.250353-133.250354 133.250354 133.250354 0 0 0 133.250353 133.250354z m0-195.53041a62.280057 62.280057 0 1 1-62.280056 62.280056 62.280057 62.280057 0 0 1 62.280056-62.280056z"  horiz-adv-x="1160" />

    
    <glyph glyph-name="fuwu" unicode="&#58902;" d="M744.5 520.3C695.9 435.8 596.7 353 531.8 320c-65 33-164.2 115.8-212.8 200.3h91.3c4.5 0 8.6 1.7 11.7 4.5l42.5 32.9 50.7-99.6c4.4-8.6 14.9-12 23.5-7.7 4.7 2.4 7.9 6.7 9 11.5l47.2 141.8 41.1-74.4c3.2-5.8 9.1-9.1 15.3-9.1h93.2v0.1zM531.8 714.2c-87.9 90.1-241.6 27.7-241.6-102.7 0-18.1 4.3-37.1 11.9-56.4h102.4L460 598c7.6 5.9 18.5 4.5 24.4-3.1 0.7-0.9 1.3-1.8 1.7-2.7l41.4-81.2 47.1 141.4c3 9.1 12.9 14.1 22 11.1 4.3-1.4 7.7-4.4 9.8-8.2l55.3-100.2h99.9c7.6 19.2 11.9 38.3 11.9 56.4-0.1 130.4-153.9 192.8-241.7 102.7zM614.9 187.39999999999998c28.5-8.2 56.1-27.3 50.2-61.5-3.9-22.7-21.2-41.8-45.2-42.4-92.9-2.2-130.9-6.3-189.5 20.5-26 11.9-41.2 36.1-51.9 62 101.4-63.9 123.2-56.4 239.9-53.6 7.9 0.2 18.4 6.3 18.4 18.3 0.1 27.9-21.1 32.9-60.5 40.2-33.9 6.2-62.6 4.9-87.9 27.7-86 77.4-164.7 90.6-265.3 44-28.7-13.3-56.3-30.3-83.8-45.9V55c37.8 12.6 80.3 28.5 118.2 37.9 16.6 4.1 31.6-0.5 46.7-8.5 99.8-53.1 104.9-52.6 217.5-71.6 14.9-2.5 28-2.1 42.4 2.4 141.6 43.7 153.6 48.5 296.7 138.2 46.7 29.3 18.2 76.8-31.6 56.5-8.7-3.5-17.4-7-26-10.5 4.8 16.2-18.7 27.4-42.1 18.7-5.2-2-10.9-4.5-17.2-7.5 1.9 17.5-21.8 28.4-55.1 14.9-7.9-3.3-57.1-30.6-73.9-38.1z"  horiz-adv-x="1024" />

    
    <glyph glyph-name="youxi" unicode="&#58901;" d="M512-128C229.239467-128 0 101.23946699999999 0 384S229.239467 896 512 896 1024 666.760533 1024 384 794.760533-128 512-128z m326.200889 467.626667c-20.707556 178.084978-57.344 305.743644-173.6704 305.743644-58.936889 0-89.201778-59.892622-141.789867-64.625778-54.158222 4.733156-82.852978 64.625778-141.812622 64.625778-116.303644 0-152.940089-127.658667-172.077511-304.173511-11.150222-94.549333-1.592889-173.351822 57.366755-173.351822 82.830222 0 86.038756 74.069333 144.9984 108.7488 22.300444 11.036444 71.68 15.746844 113.095112 17.339733 41.437867-1.592889 90.840178-6.303289 113.140622-17.339733 58.936889-34.679467 62.122667-108.7488 144.9984-108.7488 57.344-1.592889 65.308444 77.232356 55.751111 171.781689zM382.520889 355.373511c-46.193778 0-82.830222 37.842489-82.830222 81.965511 0 44.123022 36.636444 81.942756 82.830222 81.942756 46.193778 0 82.852978-36.2496 82.852978-81.942756 0-45.715911-38.229333-81.965511-82.830223-81.965511z m-47.786667 81.965511c0-12.606578 4.778667-23.643022 14.336-33.109333 7.964444-7.873422 20.707556-14.176711 33.450667-14.176711 12.743111 0 23.893333 4.733156 33.450667 14.176711 7.964444 7.896178 14.336 20.48 14.336 33.109333 0 12.606578-4.778667 23.643022-14.336 33.086578-7.964444 7.873422-20.707556 14.199467-33.450667 14.199467-12.743111 0-23.893333-4.733156-33.450667-14.199467-9.557333-7.873422-14.336-20.48-14.336-33.086578zM753.755022 421.569422h-65.308444v-64.625778h-31.857778v64.625778h-65.353956v31.516445h65.3312v63.032889h31.857778v-63.032889h65.3312z"  horiz-adv-x="1024" />

    
    <glyph glyph-name="baidu" unicode="&#58888;" d="M603.132 218.20000000000005h-41.99s-5.386 3.332-5.386 12.723v88.09l-47.357-0.604v-98.002s4.564-25.895 38.896-25.895h79.526V312.933h-23.69V218.20000000000005z m-142.11 94.733h-44.415s-40.995 1.622-55.36-44.867c-4.975-31.023 4.458-42.858 6.102-46.772 1.665-3.872 14.904-26.783 48.155-26.783h69.205V372.707l-23.688 0.52v-60.294z m0-94.733h-35.024s-21.57 0.607-28.211 25.442c-3.332 11.097 0.52 21.7 2.25 26.694 1.622 4.978 8.848 18.91 23.774 18.91h37.211V218.20000000000005z m50.492 611.108C265.582 829.308 66.228 629.932 66.228 384s199.355-445.308 445.286-445.308S956.799 138.06799999999998 956.799 384 757.446 829.308 511.514 829.308z m27.151-236.326c3.547 32.385 42.272 82.078 73.317 74.982 30.935-7.053 59.168-48.113 53.435-83.42-5.582-35.37-33.683-82.035-77.407-76.324-43.656 5.582-53.543 45.128-49.345 84.762z m-91.575 89.13c32.71 0 59.167-37.664 59.167-84.155 0-46.534-26.457-84.199-59.167-84.199-32.667 0-59.168 37.664-59.168 84.199 0 46.49 26.5 84.155 59.168 84.155zM262.554 482.715s6.989 69.292 54.928 73.577c38.096 3.265 66.135-38.422 69.055-62.263 1.796-15.467 9.842-86.252-49.39-98.995-59.103-12.7-81.081 55.684-74.593 87.681z m450.888-298.394c-32.407-76.365-150.83-36.69-150.83-36.69s-43.677 14.019-94.343 2.792c-50.688-11.338-94.389-7.03-94.389-7.03s-59.277-1.43-76.173 73.466c-16.874 74.983 59.168 116.043 64.86 123.03 5.602 7.096 45.082 33.943 70.395 76.346 25.44 42.445 101.505 76.388 155.048-7.01 39.483-56.593 107.131-108.947 107.131-108.947s50.666-39.612 18.3-115.957z m-9.886 173.98c-64.879-1.474-67.626 43.829-67.626 76.279 0 34.009 6.987 82.1 59.212 82.1 52.137 0 66.177-50.946 66.177-67.865 0-17.027 7.117-89.088-57.763-90.514z"  horiz-adv-x="1024" />

    
    <glyph glyph-name="jinbi" unicode="&#59289;" d="M512.00614 714.775904c-167.339905 0-345.170724-55.474341-345.170724-158.196682v-325.018795c0-96.681776 158.057513-178.336331 345.170724-178.336331 187.073302 0 345.157421 81.654555 345.157421 178.336331V556.5792220000001c0 102.722341-177.860495 158.196682-345.157421 158.196682z m0-57.552672c178.195115 0 287.630331-58.622025 287.630331-100.64401 0-42.049614-109.435216-100.671639-287.630331-100.671639-178.208418 0-287.643634 58.622025-287.643635 100.671639 0 42.021985 109.435216 100.64401 287.643635 100.64401z m0-546.500699c-172.930215 0-287.643634 72.750785-287.643635 120.837894v71.627197c61.863853-46.598201 167.63257-77.38533 287.643635-77.38533 119.968086 0 225.752153 30.787129 287.630331 77.38533v-71.627197c0-48.087109-114.713419-120.837894-287.630331-120.837894z m0 172.578199c-162.004397 0-287.643634 61.851573-287.643635 115.054179v68.25541c65.908974-44.66211 178.828541-68.25541 287.643635-68.25541 108.788488 0 221.704985 23.594324 287.630331 68.25541v-68.25541c0-53.201583-125.66789-115.054179-287.630331-115.054179z"  horiz-adv-x="1024" />

    
    <glyph glyph-name="jiaoyi" unicode="&#58988;" d="M648.533333 782.222222v28.444445c0 17.066667 11.377778 28.444444 28.444445 28.444444s28.444444-11.377778 28.444444-28.444444V782.222222H796.444444c62.577778 0 113.777778-51.2 113.777778-113.777778v-682.666666c0-62.577778-51.2-113.777778-113.777778-113.777778H227.555556c-62.577778 0-113.777778 51.2-113.777778 113.777778V668.444444c0 62.577778 51.2 113.777778 113.777778 113.777778h79.644444v28.444445c0 17.066667 11.377778 28.444444 28.444444 28.444444s28.444444-11.377778 28.444445-28.444444V782.222222h113.777778v28.444445c0 17.066667 11.377778 28.444444 28.444444 28.444444s28.444444-11.377778 28.444445-28.444444V782.222222h113.777777zM227.555556 725.333333c-34.133333 0-56.888889-22.755556-56.888889-56.888889v-682.666666c0-34.133333 22.755556-56.888889 56.888889-56.888889h568.888888c34.133333 0 56.888889 22.755556 56.888889 56.888889V668.444444c0 34.133333-22.755556 56.888889-56.888889 56.888889H227.555556z m85.333333-113.777777h398.222222c17.066667 0 28.444444-11.377778 28.444445-28.444445s-11.377778-28.444444-28.444445-28.444444h-398.222222c-17.066667 0-28.444444 11.377778-28.444445 28.444444s11.377778 28.444444 28.444445 28.444445z m0-170.666667h398.222222c17.066667 0 28.444444-11.377778 28.444445-28.444445s-11.377778-28.444444-28.444445-28.444444h-398.222222c-17.066667 0-28.444444 11.377778-28.444445 28.444444s11.377778 28.444444 28.444445 28.444445z m0-170.666667h398.222222c17.066667 0 28.444444-11.377778 28.444445-28.444444s-11.377778-28.444444-28.444445-28.444445h-398.222222c-17.066667 0-28.444444 11.377778-28.444445 28.444445s11.377778 28.444444 28.444445 28.444444z m0-170.666666h398.222222c17.066667 0 28.444444-11.377778 28.444445-28.444445s-11.377778-28.444444-28.444445-28.444444h-398.222222c-17.066667 0-28.444444 11.377778-28.444445 28.444444s11.377778 28.444444 28.444445 28.444445z"  horiz-adv-x="1024" />

    
    <glyph glyph-name="shouye" unicode="&#58968;" d="M945.125 434.625L545.75 770.71875s-1.40625 0-1.40625 1.40625l-1.40625 1.40625-1.40625 1.40625C523.25 786.1875 497.9375 784.78125 481.0625 770.71875l-400.78125-336.09375c-21.09375-16.875-22.5-47.8125-4.21875-67.5s50.625-22.5 70.3125-4.21875l33.75 29.53125V109.78125c0-66.09375 56.25-120.9375 125.15625-120.9375h74.53125c28.125 0 50.625 21.09375 50.625 47.8125V264.46875c0 14.0625 11.25 23.90625 25.3125 23.90625h112.5c14.0625 0 25.3125-11.25 25.3125-23.90625v-222.1875c0-2.8125 0-7.03125 1.40625-9.84375l1.40625-5.625c4.21875-22.5 25.3125-37.96875 49.21875-37.96875h73.125c68.90625 0 125.15625 54.84375 125.15625 120.9375V391.03125l33.75-29.53125c9.84375-8.4375 21.09375-11.25 32.34375-11.25 14.0625 0 28.125 5.625 37.96875 16.875 19.6875 18.28125 18.28125 49.21875-2.8125 67.5z"  horiz-adv-x="1024" />

    
    <glyph glyph-name="shouhou" unicode="&#58940;" d="M666.9 151.60000000000002H285.6c-20.3 0-37.1 16.7-37.1 37.1v251c0 6 2.4 12 7.2 15.5 4.8 3.6 10.8 6 15.5 4.8 4.8 0 25.1 1.2 58.6 3.6 87.3 7.2 129.1 51.4 129.1 135.1v2.4c2.4 19.1 19.1 53.8 64.5 53.8 39.4 0 56.2-33.5 59.8-52.6 2.4-9.6 17.9-68.1-6-124.3H723c12 0 22.7-4.8 31.1-14.3 7.2-9.6 10.8-21.5 8.4-32.3L708.7 184c-4.7-19.2-21.5-32.4-41.8-32.4zM284.4 423v-235.5c0-1.2 0-1.2 1.2-1.2h381.3c2.4 0 6 2.4 6 4.8l52.6 245c0 1.2 0 2.4-1.2 2.4s-1.2 1.2-2.4 1.2H554.6c-8.4 0-15.5 4.8-19.1 12-3.6 7.2-3.6 15.5 0 22.7 31.1 51.4 12 115.9 12 115.9v2.4c-1.2 3.6-4.8 23.9-25.1 23.9-22.7 0-27.5-15.5-28.7-21.5 0-71.7-28.7-157.8-162.6-169.7-14.4 0-33.5-1.2-46.7-2.4z m0 0M345.4 446.9h35.9v-263h-35.9zM511.5-63.299999999999955c-119.6 0-232.1 46.6-316.7 131.2S63.6 264.9 63.6 384.6s46.6 232.1 131.2 316.7 197 131.2 316.7 131.2 232.1-46.6 316.7-131.2 131.2-197 131.2-316.7-46.6-232.1-131.2-316.7c-84.6-84.7-197.1-131.2-316.7-131.2z m0 858c-226.2 0-410.2-184-410.2-410.2s184-410.2 410.2-410.2 410.2 184 410.2 410.2-184 410.2-410.2 410.2z"  horiz-adv-x="1024" />

    
    <glyph glyph-name="daocha" unicode="&#58890;" d="M358.4-12.8h-52.48c-17.92 0-33.28 15.36-33.28 34.56V364.8c-48.64 15.36-79.36 47.36-79.36 83.2V750.08c0 16.64 15.36 30.72 33.28 30.72h12.8c17.92 0 33.28-14.08 33.28-30.72v-181.76h19.2V750.08c0 16.64 15.36 30.72 33.28 30.72h12.8c17.92 0 33.28-14.08 33.28-30.72v-181.76h19.2V750.08c0 16.64 15.36 30.72 33.28 30.72h12.8c17.92 0 33.28-14.08 33.28-30.72V448c0-37.12-30.72-69.12-79.36-83.2v-343.04c1.28-19.2-14.08-34.56-32-34.56z m-131.84 768c-5.12 0-7.68-2.56-7.68-5.12V448c0-26.88 28.16-51.2 70.4-61.44 5.12-1.28 10.24-6.4 10.24-12.8v-353.28c0-5.12 3.84-8.96 7.68-8.96h51.2c3.84 0 7.68 3.84 7.68 8.96V375.04c0 6.4 3.84 11.52 10.24 12.8 42.24 10.24 70.4 35.84 70.4 61.44v300.8c0 2.56-3.84 5.12-7.68 5.12h-12.8c-5.12 0-7.68-2.56-7.68-5.12v-194.56c0-7.68-5.12-12.8-12.8-12.8h-44.8c-7.68 0-12.8 5.12-12.8 12.8V750.08c0 2.56-2.56 5.12-7.68 5.12h-12.8c-5.12 0-7.68-2.56-7.68-5.12v-194.56c0-7.68-5.12-12.8-12.8-12.8h-44.8c-7.68 0-12.8 5.12-12.8 12.8V750.08c0 2.56-2.56 5.12-7.68 5.12h-15.36zM723.2-12.8h-47.36c-17.92 0-33.28 15.36-33.28 34.56v249.6H601.6c-16.64 0-30.72 15.36-30.72 34.56V604.16c0 90.88 65.28 166.4 153.6 175.36h1.28c17.92 0 32-15.36 32-34.56V19.2c-1.28-16.64-16.64-32-34.56-32z m2.56 768c-74.24-8.96-129.28-72.96-129.28-151.04v-298.24c0-5.12 2.56-8.96 5.12-8.96h53.76c7.68 0 12.8-5.12 12.8-12.8v-263.68c0-5.12 3.84-8.96 7.68-8.96h47.36c3.84 0 7.68 3.84 7.68 8.96V746.24c0 5.12-2.56 8.96-5.12 8.96z"  horiz-adv-x="1024" />

    
    <glyph glyph-name="jiadian" unicode="&#58911;" d="M882.1 79.1H751.8c-12 0-21.8 9.7-21.8 21.8s9.8 21.8 21.8 21.8h130.3c12 0 21.8-9.7 21.8-21.8s-9.8-21.8-21.8-21.8zM882.1 144.4H751.8c-12 0-21.8 9.7-21.8 21.8s9.8 21.8 21.8 21.8h130.3c12 0 21.8-9.7 21.8-21.8s-9.8-21.8-21.8-21.8zM882.1 209.8H751.8c-12 0-21.8 9.7-21.8 21.8 0 12 9.8 21.8 21.8 21.8h130.3c12 0 21.8-9.7 21.8-21.8 0-12-9.8-21.8-21.8-21.8zM839 546.2c24 0 43.6-19.6 43.6-43.6v-414.1c0-24-19.6-43.6-43.6-43.6H185.2c-24 0-43.6 19.6-43.6 43.6V502.6c0 24 19.6 43.6 43.6 43.6H839m0 43.5H185.2c-47.9 0-87.2-39.2-87.2-87.2v-414.1c0-47.9 39.2-87.2 87.2-87.2H839c47.9 0 87.2 39.2 87.2 87.2V502.6c-0.1 47.9-39.3 87.1-87.2 87.1zM632.8 448.2c11.8 0 21.8-10 21.8-21.8v-261.5c0-11.8-10-21.8-21.8-21.8H262.4c-11.8 0-21.8 10-21.8 21.8V426.4c0 11.8 10 21.8 21.8 21.8h370.4m0 43.6H262.4c-36 0-65.4-29.4-65.4-65.4v-261.5c0-36 29.4-65.4 65.4-65.4h370.5c36 0 65.4 29.4 65.4 65.4V426.4c-0.1 35.9-29.5 65.4-65.5 65.4zM795.4 361c-36.1 0-65.4 29.3-65.4 65.4s29.3 65.4 65.4 65.4c36.1 0 65.4-29.3 65.4-65.4S831.4 361 795.4 361z m0 87.2c-12 0-21.8-9.8-21.8-21.8s9.8-21.8 21.8-21.8 21.8 9.8 21.8 21.8-9.8 21.8-21.8 21.8zM445.5 557.7c-9.1 0-18.1 2.9-25.8 8.6l-120 99.4c-9.3 7.7-10.6 21.4-2.9 30.7 7.7 9.3 21.5 10.6 30.7 2.9l119-98.7 174.1 160.8c8.9 8.1 22.7 7.5 30.8-1.4 8.1-8.9 7.5-22.7-1.4-30.8L474.6 568.8c-8.5-7.4-18.8-11.1-29.1-11.1z"  horiz-adv-x="1024" />

    
    <glyph glyph-name="shoucang" unicode="&#58899;" d="M707.584 802.816c-77.312 0-148.992-38.912-196.608-102.912-47.104 64-119.296 102.912-196.608 102.912-139.264 0-252.416-123.904-252.416-275.968 0-90.624 40.448-154.624 73.216-205.824C229.888 172.03200000000004 468.48-12.799999999999955 478.72-20.480000000000018c9.728-7.68 20.992-11.264 32.256-11.264s22.528 3.584 32.256 11.264c10.24 7.68 248.32 193.024 343.552 341.504 32.768 51.2 73.216 115.2 73.216 205.824 0 152.064-113.152 275.968-252.416 275.968zM821.76 322.55999999999995c-87.552-122.88-272.896-263.168-282.112-269.824-8.704-6.656-18.944-10.24-28.672-10.24-10.24 0-19.968 3.072-28.672 10.24-9.216 6.656-190.976 148.48-282.112 274.944-29.184 46.08-75.776 103.424-75.776 184.32 0 136.192 75.776 231.936 200.192 231.936 69.12 0 144.384-66.048 186.368-123.392 42.496 57.344 117.248 123.392 186.368 123.392 124.928 0 205.824-95.744 205.824-231.936 0-80.896-51.712-143.872-81.408-189.44z"  horiz-adv-x="1024" />

    
    <glyph glyph-name="shafa" unicode="&#59172;" d="M890.842791-33.186919H133.157209A96.837352 96.837352 0 0 0 36.425166 63.545124V430.031675a96.837352 96.837352 0 0 0 96.732043 96.732043h74.699088a96.837352 96.837352 0 0 0 96.732043-96.732043v-62.963h-40.953447v62.963a55.8371 55.8371 0 0 1-55.778596 55.778595H133.157209A55.8371 55.8371 0 0 1 77.378614 430.031675v-366.498252a55.8371 55.8371 0 0 1 55.778595-55.778595h757.685582a55.8371 55.8371 0 0 1 55.778595 55.778595V430.031675a55.8371 55.8371 0 0 1-55.778595 55.778595h-74.699088a55.8371 55.8371 0 0 1-55.778596-55.778595v-62.963h-40.953447v62.963a96.837352 96.837352 0 0 0 96.732043 96.732043h74.699088a96.837352 96.837352 0 0 0 96.732043-96.732043v-366.498252a96.837352 96.837352 0 0 0-96.732043-96.720342zM187.379574-12.710195h40.953447v-115.278104h-40.953447zM783.80218-12.710195h40.953448v-115.278104h-40.953448zM821.806979 181.830381H227.923487a33.663734 33.663734 0 0 0-33.628631 33.628631V341.665836a33.663734 33.663734 0 0 0 33.628631 33.628631h593.883492a33.663734 33.663734 0 0 0 33.628631-33.628631v-126.218525a33.663734 33.663734 0 0 0-33.628631-33.61693z m-586.558676 40.953448h579.198757v111.557191h-579.198757zM842.084786 487.752634h-40.953447V691.232763a164.352035 164.352035 0 0 1-163.81379 163.81379h-251.571177a164.352035 164.352035 0 0 1-163.81379-163.81379v-197.126494h-40.953447V691.232763a205.305483 205.305483 0 0 0 204.767237 204.767237h251.571177a205.305483 205.305483 0 0 0 204.767237-204.767237z"  horiz-adv-x="1024" />

    
    <glyph glyph-name="liwu" unicode="&#58923;" d="M832 599.4H660.1l20.5 21.2c29 29.8 29 78.2 0 108.1-14.5 14.9-33.5 22.4-52.5 22.4s-38-7.4-52.4-22.4L504 654.4l-73.7 79.3c-14.5 15.5-33.5 23.2-52.5 23.2s-38-7.7-52.5-23.2c-29-31-29-81.4 0-112.4l20.4-21.9H174.3c-19.6 0-35.5-16.3-35.5-36.3v-144c0-20.1 15.9-36.3 35.5-36.3h23.4v-298.5c0-20 15.8-36.2 35.3-36.2h539.9c19.5 0 35.3 16.2 35.3 36.2V235.89999999999998v8 21.3 8.7 6 10.9 9.3 82.7H832c19.6 0 35.5 16.2 35.5 36.3v21.7 119.7 2.7c-0.1 19.9-15.9 36.2-35.5 36.2z m-213.8 88.3c3.5 3.6 7.3 4.3 10 4.3s6.5-0.8 10.1-4.4c6.8-7 6.8-18.9 0-25.9l-39.8-41h-44.9l64.6 67z m-249.7 5.7c3.5 3.7 7 4.5 9.3 4.5 2.3 0 5.8-0.8 9.3-4.6l69-74.2h-47.9l-39.7 42.5c-7.7 8.3-7.7 23.4 0 31.8zM197.9 540.3h275.7v-98.4H197.9v98.4z m58.9-157.5h216.9v-275.7H256.8V382.79999999999995z m492.3-139V107H532.7V382.79999999999995h216.4v-139z m59.3 198.1H532.7v98.4h275.6v-98.4z"  horiz-adv-x="1024" />

    
    <glyph glyph-name="youhuiquan" unicode="&#58889;" d="M481.882353 459.083294l-112.941177 119.205647a27.648 27.648 0 0 0 40.116706 38.038588l120.470589-127.09647 120.44047 127.09647a27.648 27.648 0 0 0 40.116706-38.038588l-112.971294-119.205647h88.304941a27.648 27.648 0 1 0 0-55.265882h-103.664941v-55.296h103.664941a27.648 27.648 0 1 0 0-55.296h-103.664941v-98.906353a27.648 27.648 0 0 0-55.265882 0v98.906353h-117.488942a27.648 27.648 0 0 0 0 55.296h117.458824v55.296h-117.458824a27.648 27.648 0 0 0 0 55.265882H481.882353zM180.675765 368.94117600000004A195.855059 195.855059 0 0 0 60.235294 188.20517600000005V-67.76470600000005h933.647059v246.15153a195.855059 195.855059 0 0 0 0 381.108705V835.764706H60.235294v-286.08753A195.855059 195.855059 0 0 0 180.645647 368.94117600000004zM0 528.323765V835.764706a60.235294 60.235294 0 0 0 60.235294 60.235294h933.647059a60.235294 60.235294 0 0 0 60.235294-60.235294v-301.839059a30.117647 30.117647 0 0 0-27.407059-29.997176 135.529412 135.529412 0 0 1 0-269.974589 30.117647 30.117647 0 0 0 27.407059-29.997176V-67.76470600000005a60.235294 60.235294 0 0 0-60.235294-60.235294H60.235294a60.235294 60.235294 0 0 0-60.235294 60.235294v277.323294a30.117647 30.117647 0 0 0 21.895529 28.973177 135.589647 135.589647 0 0 1 0 260.818823A30.117647 30.117647 0 0 0 0 528.323765z"  horiz-adv-x="1054" />

    
    <glyph glyph-name="jingdong-" unicode="&#58947;" d="M512-58.2656c-251.71968 0-455.79264 204.07296-455.79264 455.79264S260.28032 853.30944 512 853.30944 967.79264 649.23648 967.79264 397.5168 763.71968-58.2656 512-58.2656z m96.32768 243.08736c114.24768 0 206.92992 101.888 206.92992 227.55328 0 125.6448-92.672 227.5328-206.92992 227.5328H470.31296v-455.08608h138.01472z m-372.62336 0c91.46368 0 165.60128 71.92576 165.60128 160.6144V639.90784h-55.18336v-294.44096c0-59.15648-49.408-107.1104-110.3872-107.1104h-27.58656v-53.54496h27.58656-0.03072z m0 0M608.32768 586.37312h-82.83136V238.3872h82.80064c83.83488 0 151.77728 77.90592 151.77728 173.98784s-67.9424 173.98784-151.77728 173.98784h0.03072z m0 0"  horiz-adv-x="1024" />

    
    <glyph glyph-name="dingwei" unicode="&#58907;" d="M808.6 492.8c0 178.8-129.8 308.5-308.5 308.5-170.1 0-308.5-138.4-308.5-308.5 0-125.6 170.6-338.3 262.3-452.6l6.8-8.4c9.6-12 24-18.9 39.5-18.9 15.4 0 29.8 6.9 39.5 18.9l6.8 8.4c91.5 114.3 262.1 327 262.1 452.6z m-310.1-89.4c-62.9 0-114 51.1-114 114s51.1 114 114 114 114-51.1 114-114-51.1-114-114-114zM500.1 828.2c-184.9 0-335.4-150.4-335.4-335.4 0-135 174.5-352.5 268.2-469.4l6.7-8.4c14.8-18.4 36.8-29 60.4-29s45.6 10.6 60.4 29l6.8 8.4C661 140.29999999999995 835.4 357.79999999999995 835.4 492.8c0 194.3-141 335.4-335.3 335.4z m0-815.3c-15.4 0-29.8 6.9-39.5 18.9l-6.8 8.4c-91.7 114.3-262.3 327-262.3 452.6 0 170.1 138.4 308.5 308.5 308.5 178.8 0 308.5-129.8 308.5-308.5 0-125.6-170.6-338.3-262.3-452.6l-6.8-8.4c-9.5-12-23.9-18.9-39.3-18.9zM498.5 517.4m-87.2 0a87.2 87.2 0 1 1 174.4 0 87.2 87.2 0 1 1-174.4 0ZM612.5 517.4c0 62.9-51.1 114-114 114s-114-51.1-114-114 51.1-114 114-114 114 51.1 114 114z m-201.2 0c0 48.1 39.1 87.2 87.2 87.2s87.2-39.1 87.2-87.2-39.1-87.2-87.2-87.2-87.2 39.1-87.2 87.2z"  horiz-adv-x="1024" />

    
    <glyph glyph-name="gouwuche" unicode="&#58913;" d="M885.3 610.5l-18.2-38.1 1.2 2.6 4.8 10c8.8 16.9-0.2 25.5-14.1 25.5h26.3zM775.8 379.1l-40.8-2.8 16.2 1.1c17.5 1.8 32.1 15.5 37 27.8l-12.4-26.1zM202.3 748.4l4.9-41.8v-0.5l-2.1 17.7c-0.8 13.8-15.1 24.6-29.1 24.6h26.3zM351.2 191.89999999999998l-5.1 40.9v0.9l2-17c0.8-13.8 15.4-24.8 29.4-24.8h-26.3zM406.7 2.3999999999999773m-57.4 0a57.4 57.4 0 1 1 114.8 0 57.4 57.4 0 1 1-114.8 0ZM708.7 2.3999999999999773m-57.4 0a57.4 57.4 0 1 1 114.8 0 57.4 57.4 0 1 1-114.8 0ZM938.3 691.3c-2.3 0.4-4.6 0.7-7 0.9H358.6c-22.6 0-41-18.3-41-41 0-22.6 18.3-41 41-41H885l-109.2-231-371.9-25.5c-22.6-1.5-39.6-21.1-38.1-43.7s21.1-39.6 43.7-38.1L805.4 299c15.1 1 27.7 10.2 34 22.8l0.6 1.2 135.2 286.1c12.6 32 1.2 74.9-36.9 82.2zM785.7 192.20000000000005H351.2L281 779c-7.3 28.8-33 50.3-63.9 51.2H70.6c-22.6 0-41-18.3-41-41 0-22.6 18.3-41 41-41h131.5l69.6-580.8c5.2-32.4 33.3-57.2 67.2-57.2h446.7c22.6 0 41 18.3 41 41s-18.3 41-40.9 41z"  horiz-adv-x="1024" />

    
    <glyph glyph-name="wangyi" unicode="&#59037;" d="M140.6 501.8h0.5c10.1 0.2 19 6.4 22.8 15.7C221.3 661.1 358.4 754 513.1 754c154.4 0 291.4-92.6 349-235.8 5.2-12.8 19.7-19 32.5-13.9 12.8 5.2 19 19.7 13.9 32.5-31.4 78-84.7 144.5-154.1 192.3-71.1 49-154.6 74.9-241.3 74.9-86.8 0-170.4-26-241.6-75.1-54.1-37.3-98.3-85.9-130-142.4l-17.7 40c-5.6 12.6-20.4 18.3-33 12.7-12.6-5.6-18.3-20.4-12.7-33l39.7-89.7c4-8.9 13-14.7 22.8-14.7zM947.9 163l-39.7 89.7c-4.1 9.2-13.3 15.1-23.3 14.9-10.1-0.2-19-6.4-22.8-15.7-57.5-143.7-194.6-236.5-349.3-236.5-154.4 0-291.4 92.6-349 235.8-5.2 12.8-19.7 19-32.5 13.9-12.8-5.2-19-19.7-13.9-32.5 31.4-78 84.7-144.5 154.1-192.3 71.2-49 154.6-74.9 241.3-74.9 86.8 0 170.4 26 241.6 75.1 54.1 37.3 98.3 85.9 130 142.4l17.7-40c5.6-12.6 20.4-18.3 33-12.7 12.7 5.4 18.4 20.2 12.8 32.8zM641 198.20000000000005c-14.7 0-29.4 0.7-44.1 2-12-1.3-18.7-10-20-26.1 1.3-14.7 10-22.7 26.1-24.1 14.7 0 31.4 0.7 50.1 2 54.8-2.7 83.5 23.4 86.2 78.2 2.7 33.4 4.7 67.5 6 102.2-2.7 21.4-14 33.4-34.1 36.1H440.6c8 8 15.3 17.4 22.1 28.1 2.7 4 4 7.3 4 10h222.5c18.7 4 29.4 14.7 32.1 32.1V573.1c-2.7 18.7-13.4 29.4-32.1 32.1H378.4c-18.7-2.7-29.4-13.4-32.1-32.1v-134.3c2.7-17.4 13.3-28.1 32.1-32.1h30.1c-29.4-38.8-64.8-71.5-106.2-98.2-10.7-8-12-18.7-4-32.1 12-10.7 24.1-12 36.1-4 24.1 14.7 46.1 32.1 66.2 52.1h64.1c-30.8-50.8-82.2-90.2-154.4-118.3-12-6.7-14.7-16.7-8-30.1 10.7-13.3 23.4-16 38.1-8C425.8 202.89999999999998 486 255 520.8 324.5h62.1c-20-60.1-60.8-105.6-122.3-136.3-12-10.7-12.7-22.7-2-36.1 12-8 25.4-7.3 40.1 2 68.2 38.8 113.6 95.5 136.3 170.4h48.1c5.3-1.3 8.7-4.7 10-10-1.3-24.1-3.4-48.8-6-74.2-1.3-30.8-16.7-44.8-46.1-42.1zM400.5 553c0 5.3 3.3 8 10 8h246.6c8 1.3 11.3-2 10-10v-28.1H400.5V553z m0-94.2v30.1h266.6v-30.1c1.3-6.7-2-10-10-10H410.5c-6.7 0-10 3.3-10 10z"  horiz-adv-x="1024" />

    
    <glyph glyph-name="pinglun" unicode="&#58958;" d="M900.3 802.1H123.7c-33 0-59.7-26.7-59.7-59.7v-537.6c0-33 26.7-59.7 59.7-59.7h59.7v-179.2l268.8 179.2h448c33 0 59.7 26.7 59.7 59.7V742.4c0.1 33-26.6 59.7-59.6 59.7z m0-567.4c0-16.5-13.4-29.9-29.9-29.9h-448L243.2 85.29999999999995V204.79999999999995h-89.6c-16.5 0-29.9 13.4-29.9 29.9V712.5c0 16.5 13.4 29.9 29.9 29.9h716.8c16.5 0 29.9-13.4 29.9-29.9v-477.8z"  horiz-adv-x="1024" />

    
    <glyph glyph-name="fenlei" unicode="&#58930;" d="M164.3 689.6c-29.8 0-54-24.2-54-54s24.2-54 54-54 54 24.2 54 54-24.2 54-54 54z m188.9-94h525c20.7 0 37.5 17.9 37.5 40s-16.8 40-37.5 40h-525c-20.7 0-37.5-17.9-37.5-40s16.8-40 37.5-40zM164.3 436.8c-29.8 0-54-24.2-54-54s24.2-54 54-54 54 24.2 54 54-24.2 54-54 54z m713.9-14h-525c-20.7 0-37.5-17.9-37.5-40s16.8-40 37.5-40h525c20.7 0 37.5 17.9 37.5 40s-16.8 40-37.5 40zM164.3 184c-29.8 0-54-24.2-54-54s24.2-54 54-54 54 24.2 54 54-24.2 54-54 54z m713.9-14h-525c-20.7 0-37.5-17.9-37.5-40s16.8-40 37.5-40h525c20.7 0 37.5 17.9 37.5 40s-16.8 40-37.5 40z"  horiz-adv-x="1024" />

    
    <glyph glyph-name="guanzhu" unicode="&#58887;" d="M32 488.416A279.584 279.584 0 0 0 512 683.36a279.584 279.584 0 0 0 480-194.944 278.144 278.144 0 0 0-113.024-224.512L562.592 3.2000000000000455a96 96 0 0 0-124.416 1.952L130.016 275.84000000000003A278.976 278.976 0 0 0 32 488.416z"  horiz-adv-x="1024" />

    
    <glyph glyph-name="baobao" unicode="&#58952;" d="M886.61504 33.28c-2.66752-49.6128-78.19264-35.84-111.34976-35.84H189.4144c-55.46496 0-32.44032 88.91392-29.88544 121.05216l19.16928 240.94208 7.49568 94.2592c1.31072 16.50176-0.10752 39.91552 10.7264 53.21216 12.40064 15.22176 31.81568 12.77952 49.12128 12.77952H814.01856c28.16512 0 35.75296-23.19872 37.58592-46.1824l15.27808-192.10752 19.73248-248.1152c2.60096-32.68608 53.82144-32.93696 51.2 0l-30.31552 381.11232-5.15072 64.75264c-3.31264 41.64608-21.17632 71.99232-61.18912 87.68512-14.92992 5.85728-34.02752 4.04992-49.95584 4.04992H224.9472c-50.37568 0-83.78368-39.56736-87.56736-87.1168l-11.76064-147.87072-18.84672-236.91776-4.93568-62.08c-3.33312-41.92256 27.95008-77.65504 66.76992-88.32512 13.50656-3.712 29.42976-2.3296 43.37152-2.3296h634.7008c50.75456 0 88.42752 36.65408 91.14112 87.04 1.77664 33.00864-49.4336 32.83456-51.20512 0zM273.92 548.69504c1.84832 133.63712 113.53088 238.88384 245.76 240.64 132.85888 1.76128 233.88672-111.89248 235.52-240.64 0.41984-32.99328 51.61984-33.03424 51.2 0-2.02752 159.36512-125.94176 289.70496-286.72 291.84-160.2048 2.12992-294.76864-133.43744-296.96-291.84-0.45568-33.03424 50.74432-32.98816 51.2 0zM516.26496 238.08m-66.55488 0a66.55488 66.55488 0 1 1 133.10976 0 66.55488 66.55488 0 1 1-133.10976 0Z"  horiz-adv-x="1024" />

    
    <glyph glyph-name="kouhong" unicode="&#58897;" d="M611.4-50.6H370.5c-4.7 0-8.5 3.8-8.5 8.5V406.5c0 4.7 3.8 8.5 8.5 8.5h240.8c4.7 0 8.5-3.8 8.5-8.5v-448.6c0.1-4.7-3.7-8.5-8.4-8.5z m-235.4 14h229.9V401.1H376v-437.7zM575.4 407.9H400.3V607.2c0 4.7 3.8 8.6 8.6 8.6h158c4.7 0 8.6-3.8 8.6-8.6v-199.3z m-161.1 14h147.1V601.7H414.3v-179.8zM557 605.2H416.1V690c0 67.9 55.2 123.1 123.1 123.1H557v-207.9z m-126.9 14H543V799h-3.9C479 799 430 750.1 430 689.9v-70.7z"  horiz-adv-x="1024" />

    
    <glyph glyph-name="yaopin" unicode="&#59480;" d="M734.040816-33.959184h-449.306122c-45.97551 0-83.591837 37.616327-83.591837 83.591837V608.653061c0 45.97551 37.616327 83.591837 83.591837 83.591837h449.306122c45.97551 0 83.591837-37.616327 83.591837-83.591837v-559.020408c0-45.97551-37.616327-83.591837-83.591837-83.591837z m-449.306122 684.408164c-22.987755 0-41.795918-18.808163-41.795918-41.795919v-559.020408c0-22.987755 18.808163-41.795918 41.795918-41.795918h449.306122c22.987755 0 41.795918 18.808163 41.795919 41.795918V608.653061c0 22.987755-18.808163 41.795918-41.795919 41.795919h-449.306122zM734.040816-33.959184h-449.306122c-45.97551 0-83.591837 37.616327-83.591837 83.591837V530.285714h616.489796v-480.653061c0-45.97551-37.616327-83.591837-83.591837-83.591837z m-491.10204 522.44898v-438.857143c0-22.987755 18.808163-41.795918 41.795918-41.795918h449.306122c22.987755 0 41.795918 18.808163 41.795919 41.795918V488.489796h-532.897959zM689.632653 655.673469H334.367347c-28.734694 0-52.244898 23.510204-52.244898 52.244898v41.795919c0 28.734694 23.510204 52.244898 52.244898 52.244898h355.265306c28.734694 0 52.244898-23.510204 52.244898-52.244898v-41.795919c0-28.734694-23.510204-52.244898-52.244898-52.244898zM334.367347 760.163265c-5.746939 0-10.44898-4.702041-10.44898-10.448979v-41.795919c0-5.746939 4.702041-10.44898 10.44898-10.448979h355.265306c5.746939 0 10.44898 4.702041 10.44898 10.448979v41.795919c0 5.746939-4.702041 10.44898-10.44898 10.448979H334.367347zM613.877551 227.265306h-208.979592c-11.493878 0-20.897959 9.404082-20.897959 20.897959s9.404082 20.897959 20.897959 20.897959h208.979592c11.493878 0 20.897959-9.404082 20.897959-20.897959s-9.404082-20.897959-20.897959-20.897959zM509.387755 122.77551c-11.493878 0-20.897959 9.404082-20.897959 20.897959v208.979592c0 11.493878 9.404082 20.897959 20.897959 20.897959s20.897959-9.404082 20.897959-20.897959v-208.979592c0-11.493878-9.404082-20.897959-20.897959-20.897959z"  horiz-adv-x="1024" />

    
    <glyph glyph-name="zhifubao" unicode="&#58893;" d="M230.4 319.488c-12.288-9.728-25.088-24.064-28.672-41.984-5.12-24.576-1.024-55.296 22.528-79.872 28.672-29.184 72.704-37.376 91.648-38.912 51.2-3.584 105.984 22.016 147.456 50.688 16.384 11.264 44.032 34.304 70.144 69.632-59.392 30.72-133.632 64.512-212.48 61.44-40.448-1.536-69.632-9.728-90.624-20.992z m752.64-135.68c26.112 61.44 40.96 129.024 40.96 200.192C1024 666.112 794.112 896 512 896S0 666.112 0 384s229.888-512 512-512c170.496 0 321.536 83.968 414.72 211.968-88.064 43.52-232.96 115.712-322.56 159.232-42.496-48.64-105.472-97.28-176.64-118.272-44.544-13.312-84.992-18.432-126.976-9.728-41.984 8.704-72.704 28.16-90.624 47.616-9.216 10.24-19.456 22.528-27.136 37.888 0.512-1.024 1.024-2.048 1.024-3.072 0 0-4.608 7.68-7.68 19.456-1.536 6.144-3.072 11.776-3.584 17.92-0.512 4.096-0.512 8.704 0 12.8-0.512 7.68 0 15.872 1.536 24.064 4.096 20.48 12.8 44.032 35.328 65.536 49.152 48.128 114.688 50.688 148.992 50.176 50.176-0.512 138.24-22.528 211.968-48.64 20.48 43.52 33.792 90.112 41.984 121.344h-307.2v33.28h157.696v66.56H272.384V593.92h190.464V660.48c0 9.216 2.048 16.384 16.384 16.384h74.752V593.92h207.36v-33.28h-207.36v-66.56h165.888s-16.896-92.672-68.608-184.32c115.2-40.96 278.016-104.448 331.776-125.952z"  horiz-adv-x="1024" />

    
    <glyph glyph-name="yihao" unicode="&#58990;" d="M443 489.1c89.9 0 183.4 19.8 239.5 57.4v-18.8c0-14.4 11.6-26 26-26s26 11.6 26 26V628.2c0 90.4-150.2 139.1-291.5 139.1s-291.5-48.8-291.5-139.1v-410.1c0-84.6 131.6-132.7 264.3-138.5 14.8-0.6 27.2 11.1 27.2 25.9 0 13.9-11 25.4-25 25.9-133.6 5.3-214.5 52.4-214.5 86.7V341.4c50.5-33.9 131.3-53.3 212.5-56.8 14.7-0.6 27 11.2 27 25.9 0 13.9-11 25.4-25 25.9-133.6 5.3-214.5 52.4-214.5 86.7V546.5c56.1-37.7 149.6-57.4 239.5-57.4z m0 226.2c148.4 0 239.5-50.8 239.5-87.2 0-36.4-91.1-87.1-239.5-87.1s-239.5 50.8-239.5 87.1c0 36.5 91.1 87.2 239.5 87.2z m233-254.7c-129.1 0-196.6-49.7-196.6-98.7v-263.5c0-49 67.5-98.7 196.6-98.7 128.1 0 195.6 48.9 196.6 97.6h0.1V361.9c0 49.1-67.6 98.7-196.7 98.7z m0-52c95.4 0 144.6-32.7 144.6-46.7s-49.2-46.7-144.6-46.7c-95.4 0-144.6 32.7-144.6 46.7s49.2 46.7 144.6 46.7z m0-356.9c-95.4 0-144.6 32.7-144.6 46.7v62.9c33-17.9 81.4-29.8 144.6-29.8 63.2 0 111.6 11.9 144.6 29.8v-62.9c0.1-14-49.1-46.7-144.6-46.7z m0 131.8c-95.4 0-144.6 32.7-144.6 46.7v62.9c33-17.9 81.4-29.8 144.6-29.8 63.2 0 111.6 11.9 144.6 29.8v-62.9c0.1-14-49.1-46.8-144.6-46.7z m0 0"  horiz-adv-x="1024" />

    
    <glyph glyph-name="dingshi" unicode="&#58950;" d="M491.287273-19.316364c-224.581818 0-407.272727 182.690909-407.272728 407.272728 0 156.392727 87.272727 296.494545 227.607273 365.614545 11.403636 5.585455 25.367273 0.930909 31.185455-10.705454 5.585455-11.636364 0.930909-25.367273-10.705455-31.185455-124.276364-61.207273-201.541818-185.250909-201.541818-323.723636 0-198.981818 161.745455-360.727273 360.727273-360.727273s360.727273 161.745455 360.727272 360.727273-161.745455 360.727273-360.727272 360.727272c-12.8 0-23.272727 10.472727-23.272728 23.272728s10.472727 23.272727 23.272728 23.272727c224.581818 0 407.272727-182.690909 407.272727-407.272727s-182.690909-407.272727-407.272727-407.272728zM491.287273 364.683636c-12.8 0-23.272727 10.472727-23.272728 23.272728l-0.232727 279.272727c0 12.8 10.472727 23.272727 23.272727 23.272727s23.272727-10.472727 23.272728-23.272727l0.232727-279.272727c0-12.8-10.472727-23.272727-23.272727-23.272728zM688.407273 364.683636h-197.12c-12.8 0-23.272727 10.472727-23.272728 23.272728s10.472727 23.272727 23.272728 23.272727h197.12c12.8 0 23.272727-10.472727 23.272727-23.272727s-10.472727-23.272727-23.272727-23.272728z"  horiz-adv-x="1024" />

    
    <glyph glyph-name="renren-copy" unicode="&#59558;" d="M438.944 832.257v-286.184c0-99.229-24.852-189.553-74.562-271.16-49.703-81.61-114.806-141.888-195.116-180.833-71.22 84.575-106.83 181.947-106.83 292.118 0 73.633 16.507 142.255 49.336 206.244 32.826 63.988 77.897 117.035 135.397 158.953 57.495 42.096 121.484 69.176 191.775 80.862z m292.117-842.6c-67.33-36.908-139.664-55.458-217.186-55.458-77.16 0-149.309 18.55-216.632 55.458 54.344 34.312 100.521 75.676 138.913 124.451 38.392 48.78 64.173 101.457 77.528 158.207 13.725-56.566 39.876-109.428 78.268-158.207 38.582-48.775 84.95-90.324 139.103-124.451h0.006zM969.02 386.198c0-110.171-35.611-207.543-106.83-292.118-80.31 38.951-145.222 99.229-195.117 180.832-49.703 81.61-74.56 172.123-74.56 271.161V832.257c70.48-11.871 134.284-38.76 191.779-80.863 57.495-42.103 102.565-95.15 135.393-158.953 32.835-63.989 49.34-132.61 49.34-206.244h-0.005z m0 0"  horiz-adv-x="1024" />

    


  </font>
</defs>
</svg>
